<svg width="58" height="35" viewBox="0 0 58 35" fill="none" xmlns="http://www.w3.org/2000/svg">
<path d="M0.58374 0.137939V32.572C0.58374 33.5984 1.46351 34.4195 2.57787 34.4195H55.4224C56.5075 34.4195 57.4166 33.5984 57.4166 32.572V0.137939L51.8154 0.19659L29.0295 17.9385L7.32861 0.137939H0.58374Z" fill="#D9F6FB"/>
<path d="M51.8151 0.19659L29.0292 17.9385L7.35766 0.137939H0.612793V32.572C0.612793 33.5984 1.49256 34.4195 2.60693 34.4195H55.4515C56.5365 34.4195 57.4456 33.5984 57.4456 32.572V0.137939L51.8151 0.19659ZM56.2726 31.9855C56.2726 32.9532 55.4222 33.745 54.3665 33.745H3.63332C2.5776 33.745 1.72716 32.9532 1.72716 31.9855V0.841753H6.68317L29.0292 19.2875L52.167 0.900403L56.2726 0.871078V31.9855Z" fill="#EDFFFF"/>
<path d="M0.671509 0.22583C0.671509 0.22583 23.6627 26.3549 28.912 26.3549C33.6334 26.3549 57.2991 0.255157 57.2991 0.255157C57.2991 0.255157 56.39 0.841668 55.3929 0.841668C45.6568 0.841668 13.6627 0.841668 2.28441 0.841668C1.55127 0.812342 0.671509 0.22583 0.671509 0.22583Z" fill="#96B1B6"/>
<path d="M34.6598 13.5395L36.0381 12.4838L55.0703 31.2521L32.5483 14.6832L34.6598 13.5395Z" fill="#96B1B6"/>
<path d="M23.6628 13.5103L21.9912 12.1614L3.13489 31.6628L25.4809 14.6834L23.6628 13.5103Z" fill="#96B1B6"/>
<path d="M1.05286 33.745C1.05286 33.745 23.7215 10.4606 29.0001 10.4606C33.7215 10.4606 56.9473 33.745 56.9473 33.745C56.9473 33.745 56.3901 34.4195 55.4224 34.4195C45.6863 34.4195 13.6922 34.4195 2.31385 34.4195C1.58072 34.4195 1.05286 33.745 1.05286 33.745Z" fill="#D9F6FB"/>
<path d="M55.6863 32.4839C55.4517 32.6012 55.1584 32.7185 54.7772 32.7185C45.2757 32.7185 14.0734 32.7185 2.98831 32.7185C2.72438 32.7185 2.48978 32.6305 2.31383 32.5132C1.52204 33.305 1.08215 33.7742 1.08215 33.7742C1.08215 33.7742 1.61001 34.4487 2.34315 34.4487C13.7214 34.4487 45.7156 34.4487 55.4517 34.4487C56.4487 34.4487 56.9766 33.7742 56.9766 33.7742C56.9766 33.7742 56.5074 33.2757 55.6863 32.4839Z" fill="#EDFFFF"/>
<path d="M56.8886 33.8037C56.8886 33.8037 33.6628 10.5193 28.9413 10.5193C23.6628 10.5193 0.994141 33.8037 0.994141 33.8037C0.994141 33.8037 23.6628 11.0765 28.9413 11.0765C33.6628 11.0765 56.8886 33.8037 56.8886 33.8037Z" fill="#EDFFFF"/>
<path d="M0.58374 0.137939C0.58374 0.137939 23.7509 24.1555 29.0295 24.1555C33.7509 24.1555 57.3873 0.137939 57.3873 0.137939C57.3873 0.137939 56.4488 0.167265 55.4811 0.167265C45.745 0.167265 13.7509 0.167265 2.3726 0.167265C1.61013 0.167265 0.58374 0.137939 0.58374 0.137939Z" fill="#D9F6FB"/>
<path d="M57.4164 0.137939C57.4164 0.137939 56.4487 0.167264 55.4516 0.167264C45.7155 0.167264 13.7214 0.167264 2.34309 0.167264C1.58063 0.167264 0.583563 0.137939 0.583563 0.137939C0.583563 0.137939 0.554238 0.137939 1.72726 1.31096C13.1642 1.31096 46.5367 1.28163 56.2434 1.28163C56.2727 1.28163 57.4164 0.137939 57.4164 0.137939Z" fill="#EDFFFF"/>
<path d="M56.9472 0.636301C56.9472 0.636301 33.7214 24.0967 29 24.0967C23.7214 24.0967 0.759521 0.313721 0.759521 0.313721C0.759521 0.313721 23.7507 22.4252 29.0293 22.4252C33.7507 22.4252 56.9472 0.636301 56.9472 0.636301Z" fill="#EDFFFF"/>
<path d="M12.4603 11.8973C18.7067 18.173 25.9501 24.8299 28.7067 24.8299C30.7595 24.8299 36.302 20.5484 41.4633 15.4751C36.1553 20.1965 30.6421 23.9794 28.7067 23.9794C26.0674 23.9501 18.9413 17.9091 12.4603 11.8973Z" fill="#AEB5B6"/>
</svg>
