<svg width="185" height="100" viewBox="0 0 185 100" fill="none" xmlns="http://www.w3.org/2000/svg">
<rect x="13.1136" y="62.29" width="158.457" height="8.74246" fill="#3E7AEA"/>
<path d="M97.5314 10.6164C96.6025 10.6164 95.6736 11.2378 95.0544 12.2734C90.8745 20.1443 86.5397 28.0152 82.3598 35.8861C82.0502 36.3004 81.8954 36.9218 81.5858 37.336C80.8117 36.3004 80.0377 35.2647 79.4184 34.022C76.0126 29.0509 72.7615 24.0798 69.5105 18.6944C69.046 17.8659 68.4268 17.0374 67.9623 16.0017C67.4979 15.1732 66.8787 14.1376 66.4142 13.309C65.9498 12.4805 65.4854 11.4449 64.8661 10.6164C64.4017 9.58073 63.9372 8.75221 63.4728 7.71656C63.0084 6.68092 62.5439 5.8524 62.0795 4.81675C61.9247 4.4025 61.6151 3.78111 61.4603 3.36685C61.3054 2.95259 60.9958 2.3312 60.841 1.91695C60.6862 1.70982 60.6862 1.50269 60.5314 1.29556C60.3766 1.08843 60.2218 0.881301 60.0669 0.674171C59.6025 0.259913 59.2929 0.0527836 58.8285 0.0527836C58.2092 -0.154346 57.4351 0.259913 56.9707 1.08843C53.41 6.26666 49.5397 11.0306 45.6695 15.7946C43.6569 18.073 41.7992 20.3514 39.7866 22.6299C35.7615 27.1867 31.8912 31.5364 27.8661 36.3004C21.9833 43.1357 16.2552 50.3852 11.1464 58.6703C7.43096 64.2628 3.71548 70.0624 0 75.6549H185C178.653 66.127 172.151 57.0133 165.339 48.7281C163.946 47.0711 162.552 45.4141 161.004 43.757C158.063 40.443 155.276 37.336 152.18 34.4362C147.69 30.0865 143.201 25.9439 138.402 22.6299C137.318 22.0085 136.389 21.18 135.305 20.5586C134.222 19.9372 133.138 19.3158 132.054 18.6944C131.435 18.4873 130.971 18.073 130.351 17.8659C129.887 17.6588 129.268 17.2445 128.803 17.0374C128.339 16.8302 127.41 17.0374 126.946 17.2445C126.636 17.4516 126.326 17.6588 126.172 18.073C123.23 23.2513 120.134 28.2223 116.883 32.9863C116.109 31.9507 115.18 30.7079 114.406 29.6723C113.632 28.6366 112.703 27.3938 111.774 26.3582C110.845 25.3225 110.071 24.2869 109.142 23.0441C108.213 22.0085 107.439 20.9728 106.51 19.9372C105.582 18.9015 104.808 17.8659 103.879 16.8302C102.95 15.7946 102.176 14.759 101.247 13.7233C100.782 13.3091 100.318 12.6877 100.008 12.2734C99.5439 11.652 98.7699 10.4092 97.5314 10.6164ZM126.017 22.6299L131.435 28.6366L127.41 20.3514C127.565 20.1443 127.874 19.9372 128.184 19.9372C128.339 19.9372 128.339 19.9372 128.339 19.9372C134.531 22.837 140.724 27.1867 147.226 33.1935C146.762 34.2291 146.142 35.0576 145.678 36.0933L144.13 34.2291L144.439 36.9218C143.046 36.7146 141.653 35.8861 140.259 35.0576C139.95 34.8505 139.64 34.8505 139.485 34.6434L129.268 21.8013L135.925 32.9863L133.448 31.1222L135.615 34.8505C132.519 35.679 129.423 36.9218 126.172 38.1646C122.921 39.6145 119.515 41.0644 116.264 42.7214C115.799 42.9285 115.18 43.1357 114.715 43.5499L120.444 35.2647L112.238 43.9642C116.728 37.5432 121.372 30.5008 126.017 22.6299ZM86.2301 33.6077L96.4477 14.5518C96.6025 14.1376 97.0669 13.9304 97.5314 13.9304C97.841 13.9304 98.1506 14.1376 98.3054 14.3447L95.2092 35.8861L100.163 16.416C102.95 19.7301 105.736 23.0441 108.368 26.3582C108.368 26.3582 108.213 26.3582 108.213 26.1511C106.82 25.1154 105.272 23.8726 105.272 23.8726C105.272 23.8726 106.356 25.9439 107.594 27.601C108.059 28.4295 108.678 29.0509 108.987 29.6723C107.594 31.3293 106.046 32.7792 104.808 34.6434C101.711 38.7859 99.3891 44.9998 95.2092 46.0355C93.8159 46.4497 92.5774 46.2426 91.3389 45.6212L97.0669 18.4873L89.636 44.5856C88.2427 43.5499 86.8494 42.1 85.6109 40.443C85.3013 40.0287 85.1464 39.8216 84.8368 39.4073L89.9456 29.4651L86.2301 33.6077ZM57.7448 0.259914C57.4351 0.467043 57.2803 0.67417 57.1255 0.881299C57.2803 0.67417 57.4351 0.467043 57.7448 0.259914ZM37.1548 29.0509C43.5021 21.8013 50.0042 14.5518 55.887 6.26666L58.8285 29.258L57.8996 3.78111C58.0544 3.57398 58.0544 3.57398 58.2092 3.36685C58.364 3.15972 58.5188 2.95259 58.6736 2.95259C58.9833 2.95259 59.1381 3.15972 59.2929 3.57398C63.9372 14.3447 69.6653 23.6655 75.3933 32.1578C72.2971 35.8861 69.2008 39.4073 65.9498 42.5143L64.2469 33.4006L64.5565 40.2358L58.9833 8.33795L60.841 46.0355C50.4686 40.6501 39.3222 44.3784 28.795 48.521C26.4728 49.5567 23.9958 50.5923 21.6736 51.4208L38.2385 31.3293L19.9707 49.5567C25.5439 42.3071 31.4268 35.4719 37.1548 29.0509ZM165.184 69.2339C160.849 69.2339 154.812 69.6482 147.381 69.6482C139.95 69.6482 131.435 70.0624 122.146 70.0624C112.858 70.0624 103.105 70.2696 93.1967 70.2696C83.2887 70.2696 73.5356 70.0624 64.2469 70.0624C54.9582 70.0624 46.4435 69.8553 39.0126 69.6482C31.5816 69.441 25.5439 69.2339 21.2092 69.2339C16.8745 69.0268 14.3975 69.0268 14.3975 69.0268C14.3975 69.0268 16.8745 69.0268 21.2092 68.8197C25.5439 68.8197 31.5816 68.4054 39.0126 68.4054C46.4435 68.4054 54.9582 67.9911 64.2469 67.9911C73.5356 67.9911 83.2887 67.784 93.1967 67.784C103.105 67.784 112.858 67.9911 122.146 67.9911C131.435 67.9911 139.95 68.1983 147.381 68.4054C154.812 68.6125 160.849 68.8197 165.184 68.8197C169.519 69.0268 171.996 69.0268 171.996 69.0268C171.996 69.0268 169.519 69.0268 165.184 69.2339Z" fill="#3E7AEA"/>
<path d="M30.5311 97.6733C31.4578 97.6733 32.3087 97.5551 33.0838 97.3188C33.8588 97.0668 34.5328 96.6966 35.1057 96.2083C35.6955 95.7042 36.1672 95.0662 36.521 94.2944C36.8749 93.5226 37.0939 92.6011 37.1782 91.5299H27.6499V89.7578H37.1782C37.0939 88.7181 36.8749 87.8203 36.521 87.0642C36.1672 86.3081 35.7038 85.6858 35.131 85.1975C34.5749 84.6935 33.9263 84.3233 33.1849 84.087C32.4435 83.8507 31.6432 83.7326 30.7839 83.7326C29.6381 83.7326 28.5345 83.9216 27.473 84.2996C26.4283 84.662 25.4258 85.2605 24.4654 86.0954L23.2017 84.6777C24.1621 83.8428 25.3247 83.1812 26.6895 82.6929C28.0543 82.2046 29.5033 81.9604 31.0366 81.9604C32.553 81.9604 33.9263 82.1495 35.1562 82.5275C36.4031 82.9056 37.4646 83.4648 38.3407 84.2051C39.2338 84.9455 39.9245 85.8591 40.4132 86.946C40.9019 88.0329 41.1461 89.2852 41.1461 90.7029C41.1461 92.1206 40.9019 93.3729 40.4132 94.4598C39.9245 95.5467 39.2253 96.4603 38.3155 97.2007C37.4224 97.9411 36.3356 98.5002 35.0551 98.8783C33.7915 99.2563 32.3677 99.4454 30.7839 99.4454C29.2506 99.4454 27.8016 99.2012 26.4368 98.7129C25.072 98.2246 23.9094 97.563 22.949 96.7281L24.2127 95.3104C25.1731 96.1453 26.1756 96.7517 27.2203 97.1298C28.2818 97.4921 29.3854 97.6733 30.5311 97.6733ZM45.4437 82.433H54.0368C55.3341 82.433 56.4546 82.5433 57.3982 82.7638C58.3587 82.9686 59.1505 83.2679 59.774 83.6617C60.3974 84.0397 60.8608 84.4966 61.164 85.0321C61.4673 85.5677 61.619 86.1584 61.619 86.8042C61.619 87.6391 61.3662 88.3637 60.8608 88.978C60.3553 89.5924 59.5971 90.0492 58.5861 90.3485C59.8498 90.5848 60.8355 91.0495 61.5432 91.7426C62.2676 92.4199 62.6299 93.2941 62.6299 94.3653C62.6299 95.783 61.9981 96.9092 60.7344 97.7441C59.4875 98.5632 57.5077 98.9728 54.795 98.9728H45.4437V82.433ZM49.1084 91.4118V97.2007H54.795C56.0587 97.2007 57.0275 96.9644 57.7015 96.4918C58.3755 96.0193 58.7125 95.3104 58.7125 94.3653C58.7125 93.3572 58.3755 92.6168 57.7015 92.1442C57.0275 91.6559 56.0587 91.4118 54.795 91.4118H49.1084ZM54.0368 89.6396C56.4799 89.6396 57.7015 88.6945 57.7015 86.8042C57.7015 85.9694 57.3898 85.3314 56.7664 84.8904C56.1598 84.4335 55.25 84.2051 54.0368 84.2051H49.1084V89.6396H54.0368ZM70.5863 84.2051V89.6396H79.8112V91.4118H70.5863V97.2007H82.3386V98.9728H66.9216V82.433H82.3386V84.2051H70.5863ZM95.2273 82.433C96.4909 82.433 97.6198 82.5669 98.614 82.8347C99.6249 83.0867 100.476 83.4648 101.167 83.9689C101.857 84.4572 102.388 85.0636 102.759 85.7882C103.13 86.4971 103.315 87.3083 103.315 88.2219C103.315 89.1356 103.13 89.9547 102.759 90.6793C102.388 91.3881 101.857 91.9946 101.167 92.4987C100.476 92.987 99.6249 93.365 98.614 93.6328C97.6198 93.8848 96.4909 94.0109 95.2273 94.0109H89.7934V98.9728H86.1287V82.433H95.2273ZM89.7934 84.2051V92.2387H95.2273C96.5583 92.2387 97.5862 91.9158 98.3107 91.27C99.0521 90.6084 99.4227 89.5924 99.4227 88.2219C99.4227 86.8515 99.0521 85.8434 98.3107 85.1975C97.5862 84.5359 96.5583 84.2051 95.2273 84.2051H89.7934ZM111.024 84.2051V89.6396H120.249V91.4118H111.024V97.2007H122.777V98.9728H107.36V82.433H122.777V84.2051H111.024ZM135.911 97.6733C137.057 97.6733 138.152 97.4921 139.197 97.1298C140.258 96.7517 141.269 96.1453 142.23 95.3104L143.493 96.7281C142.533 97.563 141.37 98.2246 140.006 98.7129C138.641 99.2012 137.192 99.4454 135.658 99.4454C134.075 99.4454 132.643 99.2563 131.362 98.8783C130.098 98.5002 129.011 97.9411 128.102 97.2007C127.209 96.4603 126.518 95.5467 126.029 94.4598C125.541 93.3729 125.296 92.1206 125.296 90.7029C125.296 89.2852 125.532 88.0329 126.004 86.946C126.493 85.8591 127.175 84.9455 128.051 84.2051C128.944 83.4648 130.014 82.9056 131.261 82.5275C132.508 82.1495 133.889 81.9604 135.406 81.9604C136.939 81.9604 138.388 82.2046 139.753 82.6929C141.118 83.1812 142.28 83.8428 143.241 84.6777L141.977 86.0954C141.017 85.2605 140.006 84.662 138.944 84.2996C137.899 83.9216 136.804 83.7326 135.658 83.7326C134.749 83.7326 133.898 83.8743 133.106 84.1579C132.314 84.4257 131.632 84.8431 131.059 85.4102C130.486 85.9773 130.031 86.7019 129.694 87.584C129.374 88.4503 129.214 89.49 129.214 90.7029C129.214 91.9158 129.374 92.9633 129.694 93.8455C130.031 94.7118 130.494 95.4286 131.084 95.9956C131.69 96.5627 132.398 96.988 133.207 97.2716C134.033 97.5394 134.934 97.6733 135.911 97.6733ZM162.828 84.2051H156.004V98.9728H152.34V84.2051H145.516V82.433H162.828V84.2051Z" fill="#3E7AEA"/>
</svg>
