<?xml version="1.0" standalone="no"?>
<!DOCTYPE svg PUBLIC "-//W3C//DTD SVG 20010904//EN"
 "http://www.w3.org/TR/2001/REC-SVG-20010904/DTD/svg10.dtd">
<svg version="1.0" xmlns="http://www.w3.org/2000/svg"
 width="260.000000pt" height="260.000000pt" viewBox="0 0 260.000000 260.000000"
 preserveAspectRatio="xMidYMid meet">
<metadata>
Created by potrace 1.11, written by Peter Selinger 2001-2013
</metadata>
<g transform="translate(0.000000,260.000000) scale(0.100000,-0.100000)"
fill="#000000" stroke="none">
<path d="M730 1709 c-41 -55 -82 -108 -90 -117 -8 -9 -38 -44 -65 -77 -28 -33
-65 -76 -84 -95 -81 -86 -267 -328 -355 -465 -54 -82 -106 -162 -117 -177 -10
-15 -19 -32 -19 -38 0 -7 406 -10 1300 -10 l1300 0 -17 28 c-40 62 -187 265
-245 339 -175 221 -493 490 -552 467 -8 -3 -29 -30 -45 -59 -17 -30 -47 -79
-66 -110 l-36 -55 -36 47 c-71 94 -136 174 -195 238 -38 41 -58 42 -80 4 -44
-80 -176 -328 -180 -339 -8 -25 -172 234 -263 415 -27 55 -57 101 -65 102 -9
2 -45 -38 -90 -98z m137 -36 c45 -94 141 -261 170 -294 7 -8 13 -20 13 -25 0
-5 -28 -40 -62 -77 -62 -70 -77 -73 -78 -19 0 16 -4 21 -12 16 -8 -5 -7 0 2
11 9 11 10 16 3 11 -9 -5 -13 -1 -14 11 0 10 -2 25 -4 33 -6 24 -25 132 -30
170 -10 69 -25 143 -31 149 -3 3 -3 -10 0 -29 3 -19 8 -105 11 -190 3 -85 8
-184 11 -219 5 -57 3 -63 -12 -57 -117 45 -266 28 -453 -52 -40 -18 -75 -32
-78 -32 -2 0 35 48 83 108 126 156 127 156 20 50 -143 -144 -138 -133 32 71
20 24 44 51 53 60 28 29 184 215 234 279 26 34 50 61 51 59 2 -2 8 -37 14 -78
19 -139 22 -154 26 -158 2 -2 2 26 -1 64 -8 134 -8 235 0 235 2 0 26 -44 52
-97z m508 -85 c-3 -12 -7 -42 -10 -67 -3 -25 -10 -73 -15 -106 -16 -97 -10
-87 20 34 27 106 36 130 43 120 1 -2 20 -25 40 -51 21 -27 36 -52 33 -56 -3
-5 6 -25 19 -44 l24 -36 -21 -18 c-11 -11 -44 -55 -73 -99 -55 -85 -92 -118
-128 -113 -26 4 -27 24 -2 128 3 14 10 48 15 75 6 28 12 59 15 70 3 11 -2 4
-11 -15 -9 -19 -17 -42 -19 -50 -11 -55 -50 -180 -56 -180 -4 0 -20 15 -34 34
l-26 35 31 62 c17 35 24 56 15 49 -13 -11 -14 -10 -9 6 4 10 14 30 23 44 9 14
36 64 61 113 42 82 74 114 65 65z m616 -186 c70 -56 78 -66 68 -83 -8 -16 -13
-18 -25 -8 -12 10 -13 9 -8 -6 6 -16 3 -17 -22 -11 -32 8 -47 22 -118 114 -27
34 -50 62 -52 62 -4 0 33 -68 46 -85 4 -5 7 -17 7 -25 1 -8 3 -22 7 -30 5 -12
-12 -22 -71 -44 -43 -16 -104 -42 -137 -58 -32 -16 -60 -28 -62 -25 -2 2 10
23 27 48 l31 44 -48 -50 c-53 -56 -52 -54 21 60 28 44 64 101 79 128 15 26 32
47 36 47 5 0 18 -12 29 -27 30 -37 38 -21 12 22 -11 20 -21 41 -21 46 0 17
117 -52 201 -119z"/>
<path d="M1336 1475 c-9 -26 -7 -32 5 -12 6 10 9 21 6 23 -2 3 -7 -2 -11 -11z"/>
</g>
</svg>
