<svg width="159" height="85" viewBox="0 0 159 85" fill="none" xmlns="http://www.w3.org/2000/svg">
<rect x="11.2087" y="53.2417" width="135.44" height="7.47253" fill="#3E7AEA"/>
<path d="M83.3639 9.07423C82.57 9.07423 81.776 9.60536 81.2467 10.4906C77.674 17.2181 73.9689 23.9457 70.3962 30.6733C70.1316 31.0274 69.9992 31.5585 69.7346 31.9126C69.073 31.0274 68.4113 30.1422 67.882 29.0799C64.9709 24.8309 62.1921 20.5819 59.4133 15.9788C59.0164 15.2707 58.4871 14.5625 58.0901 13.6773C57.6931 12.9691 57.1638 12.0839 56.7669 11.3758C56.3699 10.6676 55.9729 9.7824 55.4436 9.07423C55.0467 8.18902 54.6497 7.48086 54.2527 6.59565C53.8557 5.71044 53.4588 5.00228 53.0618 4.11707C52.9295 3.76299 52.6648 3.23186 52.5325 2.87778C52.4002 2.5237 52.1355 1.99257 52.0032 1.63849C51.8709 1.46145 51.8709 1.28441 51.7386 1.10737C51.6062 0.930324 51.4739 0.753282 51.3416 0.576241C50.9446 0.222158 50.68 0.0451162 50.283 0.0451162C49.7537 -0.131925 49.0921 0.222158 48.6951 0.930324C45.6517 5.35636 42.3436 9.42832 39.0355 13.5003C37.3153 15.4477 35.7274 17.3952 34.0072 19.3426C30.5668 23.2375 27.2587 26.9554 23.8183 31.0274C18.79 36.8697 13.894 43.0662 9.5273 50.1479C6.35154 54.928 3.17577 59.8851 0 64.6653H158.127C152.702 56.5213 147.144 48.7315 141.322 41.6499C140.131 40.2335 138.94 38.8172 137.617 37.4009C135.102 34.5682 132.721 31.9126 130.074 29.434C126.237 25.7161 122.399 22.1753 118.297 19.3426C117.371 18.8115 116.577 18.1033 115.651 17.5722C114.725 17.0411 113.798 16.51 112.872 15.9788C112.343 15.8018 111.946 15.4477 111.417 15.2707C111.02 15.0936 110.49 14.7396 110.093 14.5625C109.696 14.3855 108.902 14.5625 108.505 14.7396C108.241 14.9166 107.976 15.0936 107.844 15.4477C105.33 19.8738 102.683 24.1228 99.9044 28.1947C99.2428 27.3095 98.4488 26.2473 97.7872 25.362C97.1256 24.4768 96.3316 23.4146 95.5377 22.5294C94.7438 21.6442 94.0821 20.759 93.2882 19.6967C92.4943 18.8115 91.8326 17.9263 91.0387 17.0411C90.2448 16.1559 89.5831 15.2707 88.7892 14.3855C87.9952 13.5003 87.3336 12.6151 86.5397 11.7299C86.1427 11.3758 85.7457 10.8446 85.4811 10.4906C85.0841 9.95944 84.4225 8.89719 83.3639 9.07423ZM107.711 19.3426L112.343 24.4768L108.902 17.3952C109.035 17.2181 109.299 17.0411 109.564 17.0411C109.696 17.0411 109.696 17.0411 109.696 17.0411C114.989 19.5197 120.282 23.2376 125.84 28.3718C125.443 29.257 124.914 29.9651 124.517 30.8503L123.193 29.257L123.458 31.5585C122.267 31.3815 121.076 30.6733 119.885 29.9651C119.621 29.7881 119.356 29.7881 119.224 29.611L110.49 18.6345L116.18 28.1947L114.063 26.6013L115.916 29.7881C113.269 30.4962 110.623 31.5585 107.844 32.6207C105.065 33.86 102.154 35.0993 99.3751 36.5157C98.9781 36.6927 98.4488 36.8697 98.0518 37.2238L102.948 30.1422L95.9347 37.5779C99.7721 32.0896 103.742 26.0702 107.711 19.3426ZM73.7043 28.7258L82.4377 12.438C82.57 12.0839 82.9669 11.9069 83.3639 11.9069C83.6286 11.9069 83.8932 12.0839 84.0255 12.261L81.3791 30.6733L85.6134 14.0314C87.9952 16.8641 90.3771 19.6967 92.6266 22.5294C92.6266 22.5294 92.4943 22.5294 92.4943 22.3523C91.3033 21.4671 89.9801 20.4049 89.9801 20.4049C89.9801 20.4049 90.9064 22.1753 91.965 23.5916C92.3619 24.2998 92.8912 24.8309 93.1559 25.362C91.965 26.7784 90.6417 28.0177 89.5831 29.611C86.9367 33.1519 84.9518 38.4631 81.3791 39.3483C80.1881 39.7024 79.1296 39.5254 78.071 38.9942L82.9669 15.8018L76.6154 38.109C75.4245 37.2238 74.2336 35.9845 73.175 34.5682C72.9103 34.2141 72.778 34.0371 72.5134 33.683L76.8801 25.185L73.7043 28.7258ZM49.3567 0.222158C49.0921 0.3992 48.9598 0.57624 48.8274 0.753281C48.9598 0.57624 49.0921 0.3992 49.3567 0.222158ZM31.7577 24.8309C37.183 18.6345 42.7405 12.438 47.7688 5.35636L50.283 25.008L49.4891 3.23186C49.6214 3.05482 49.6214 3.05482 49.7537 2.87778C49.886 2.70074 50.0184 2.5237 50.1507 2.5237C50.4153 2.5237 50.5476 2.70074 50.68 3.05482C54.6497 12.261 59.5457 20.2278 64.4416 27.4865C61.7952 30.6733 59.1487 33.683 56.3699 36.3386L54.9143 28.5488L55.179 34.3912L50.4153 7.12678L52.0032 39.3483C43.1375 34.7452 33.6102 37.932 24.6122 41.4728C22.6273 42.358 20.5102 43.2432 18.5253 43.9514L32.684 26.7784L17.0698 42.358C21.8334 36.1616 26.8617 30.3192 31.7577 24.8309ZM141.189 59.177C137.484 59.177 132.324 59.531 125.972 59.531C119.621 59.531 112.343 59.8851 104.403 59.8851C96.464 59.8851 88.1276 60.0622 79.6589 60.0622C71.1901 60.0622 62.8537 59.8851 54.9143 59.8851C46.9749 59.8851 39.6971 59.7081 33.3456 59.531C26.994 59.354 21.8334 59.177 18.1283 59.177C14.4233 58.9999 12.3061 58.9999 12.3061 58.9999C12.3061 58.9999 14.4233 58.9999 18.1283 58.8229C21.8334 58.8229 26.994 58.4688 33.3456 58.4688C39.6971 58.4688 46.9749 58.1147 54.9143 58.1147C62.8537 58.1147 71.1901 57.9377 79.6589 57.9377C88.1276 57.9377 96.464 58.1147 104.403 58.1147C112.343 58.1147 119.621 58.2918 125.972 58.4688C132.324 58.6458 137.484 58.8229 141.189 58.8229C144.894 58.9999 147.012 58.9999 147.012 58.9999C147.012 58.9999 144.894 58.9999 141.189 59.177Z" fill="#3E7AEA"/>
<path d="M26.0961 83.4853C26.8882 83.4853 27.6155 83.3843 28.278 83.1823C28.9405 82.967 29.5165 82.6505 30.0062 82.2331C30.5103 81.8023 30.9135 81.257 31.2159 80.5973C31.5184 79.9376 31.7056 79.1499 31.7776 78.2343H23.6334V76.7196H31.7776C31.7056 75.831 31.5184 75.0635 31.2159 74.4173C30.9135 73.771 30.5174 73.2392 30.0278 72.8218C29.5525 72.3909 28.9981 72.0745 28.3644 71.8726C27.7307 71.6706 27.0466 71.5696 26.3121 71.5696C25.3328 71.5696 24.3895 71.7312 23.4822 72.0543C22.5893 72.364 21.7324 72.8756 20.9115 73.5892L19.8314 72.3775C20.6523 71.6639 21.646 71.0984 22.8125 70.681C23.9791 70.2636 25.2176 70.0549 26.5282 70.0549C27.8243 70.0549 28.9981 70.2165 30.0494 70.5396C31.1152 70.8628 32.0225 71.3407 32.7713 71.9736C33.5346 72.6064 34.125 73.3873 34.5427 74.3163C34.9604 75.2453 35.1692 76.3157 35.1692 77.5275C35.1692 78.7392 34.9604 79.8096 34.5427 80.7386C34.125 81.6676 33.5274 82.4485 32.7497 83.0814C31.9864 83.7142 31.0575 84.1921 29.963 84.5153C28.8829 84.8384 27.6659 85 26.3121 85C25.0016 85 23.763 84.7913 22.5965 84.3739C21.43 83.9566 20.4363 83.3911 19.6154 82.6774L20.6955 81.4657C21.5164 82.1793 22.3733 82.6976 23.2662 83.0208C24.1735 83.3305 25.1168 83.4853 26.0961 83.4853ZM38.8425 70.4589H46.1874C47.2962 70.4589 48.254 70.5531 49.0605 70.7416C49.8814 70.9166 50.5582 71.1724 51.0912 71.509C51.624 71.8322 52.0201 72.2226 52.2793 72.6804C52.5385 73.1382 52.6681 73.6431 52.6681 74.1951C52.6681 74.9087 52.4521 75.5281 52.0201 76.0532C51.588 76.5782 50.9399 76.9687 50.0758 77.2245C51.156 77.4265 51.9985 77.8237 52.6033 78.4161C53.2226 78.995 53.5322 79.7423 53.5322 80.6578C53.5322 81.8696 52.9922 82.8322 51.912 83.5459C50.8463 84.246 49.154 84.5961 46.8354 84.5961H38.8425V70.4589ZM41.9749 78.1333V83.0814H46.8354C47.9156 83.0814 48.7436 82.8794 49.3197 82.4755C49.8958 82.0716 50.1838 81.4657 50.1838 80.6578C50.1838 79.7962 49.8958 79.1633 49.3197 78.7594C48.7436 78.342 47.9156 78.1333 46.8354 78.1333H41.9749ZM46.1874 76.6186C48.2756 76.6186 49.3197 75.8108 49.3197 74.1951C49.3197 73.4815 49.0533 72.9362 48.5204 72.5592C48.002 72.1688 47.2243 71.9736 46.1874 71.9736H41.9749V76.6186H46.1874ZM60.3328 71.9736V76.6186H68.2178V78.1333H60.3328V83.0814H70.378V84.5961H57.2005V70.4589H70.378V71.9736H60.3328ZM81.3945 70.4589C82.4746 70.4589 83.4395 70.5733 84.2892 70.8022C85.1533 71.0176 85.8806 71.3407 86.4711 71.7716C87.0616 72.189 87.5152 72.7073 87.832 73.3267C88.1488 73.9326 88.3073 74.626 88.3073 75.4069C88.3073 76.1878 88.1488 76.8879 87.832 77.5073C87.5152 78.1131 87.0616 78.6315 86.4711 79.0624C85.8806 79.4797 85.1533 79.8028 84.2892 80.0318C83.4395 80.2472 82.4746 80.3549 81.3945 80.3549H76.7499V84.5961H73.6175V70.4589H81.3945ZM76.7499 71.9736V78.8402H81.3945C82.5322 78.8402 83.4107 78.5642 84.03 78.0122C84.6637 77.4467 84.9805 76.5782 84.9805 75.4069C84.9805 74.2355 84.6637 73.3738 84.03 72.8218C83.4107 72.2563 82.5322 71.9736 81.3945 71.9736H76.7499ZM94.8969 71.9736V76.6186H102.782V78.1333H94.8969V83.0814H104.942V84.5961H91.7646V70.4589H104.942V71.9736H94.8969ZM116.169 83.4853C117.148 83.4853 118.084 83.3305 118.977 83.0208C119.884 82.6976 120.748 82.1793 121.569 81.4657L122.649 82.6774C121.829 83.3911 120.835 83.9566 119.668 84.3739C118.502 84.7913 117.263 85 115.953 85C114.599 85 113.375 84.8384 112.28 84.5153C111.2 84.1921 110.271 83.7142 109.493 83.0814C108.73 82.4485 108.14 81.6676 107.722 80.7386C107.304 79.8096 107.096 78.7392 107.096 77.5275C107.096 76.3157 107.297 75.2453 107.7 74.3163C108.118 73.3873 108.701 72.6064 109.45 71.9736C110.214 71.3407 111.128 70.8628 112.194 70.5396C113.26 70.2165 114.44 70.0549 115.737 70.0549C117.047 70.0549 118.286 70.2636 119.452 70.681C120.619 71.0984 121.612 71.6639 122.433 72.3775L121.353 73.5892C120.532 72.8756 119.668 72.364 118.761 72.0543C117.868 71.7312 116.932 71.5696 115.953 71.5696C115.175 71.5696 114.448 71.6908 113.771 71.9332C113.094 72.1621 112.511 72.5188 112.021 73.0036C111.531 73.4883 111.142 74.1076 110.854 74.8616C110.581 75.6021 110.444 76.4907 110.444 77.5275C110.444 78.5642 110.581 79.4595 110.854 80.2135C111.142 80.954 111.539 81.5667 112.043 82.0514C112.561 82.5361 113.166 82.8996 113.857 83.142C114.563 83.3709 115.333 83.4853 116.169 83.4853ZM139.176 71.9736H133.343V84.5961H130.211V71.9736H124.378V70.4589H139.176V71.9736Z" fill="#3E7AEA"/>
</svg>
