<svg xmlns="http://www.w3.org/2000/svg" xmlns:xlink="http://www.w3.org/1999/xlink"><symbol id="icon-arrow" viewBox="0 0 22 38">
<path d="M21.5358 17.9572L2.69448 0.429717C2.07716 -0.144214 1.07772 -0.14325 0.461437 0.432686C-0.154367 1.00855 -0.152776 1.9414 0.464619 2.51578L18.1845 19.0001L0.463976 35.4843C-0.153339 36.0587 -0.15493 36.991 0.460793 37.5669C0.769729 37.8556 1.17446 38 1.57919 38C1.98288 38 2.38601 37.8566 2.69439 37.5699L21.5358 20.0428C21.8332 19.7669 22 19.3914 22 19.0001C22 18.6088 21.8327 18.2337 21.5358 17.9572Z" fill="currentColor"/>
</symbol><symbol id="icon-basket-2" viewBox="0 0 25 25">
<path d="M24.8557 5.2232C24.7126 5.0181 24.4823 4.89132 24.2322 4.88063L8.72447 4.21218C8.27952 4.19271 7.9077 4.53623 7.88868 4.9791C7.86977 5.42181 8.21272 5.79587 8.65554 5.81489L23.1134 6.43814L20.2707 15.3076H7.62024L5.33476 2.8633C5.28452 2.59056 5.09727 2.36303 4.83902 2.26171L1.09578 0.791145C0.683232 0.629627 0.217699 0.832266 0.0556768 1.24431C-0.106065 1.65659 0.096518 2.1224 0.508846 2.28442L3.83718 3.59195L6.163 16.2547C6.2331 16.6353 6.56486 16.9118 6.95207 16.9118H7.33788L6.45689 19.3589C6.38315 19.5639 6.41353 19.7916 6.53902 19.9697C6.66434 20.1478 6.86815 20.2538 7.08573 20.2538H7.70366C7.32076 20.6799 7.08573 21.241 7.08573 21.858C7.08573 23.185 8.16545 24.2644 9.49211 24.2644C10.8188 24.2644 11.8985 23.185 11.8985 21.858C11.8985 21.241 11.6635 20.6799 11.2806 20.2538H16.5271C16.1441 20.6799 15.9091 21.241 15.9091 21.858C15.9091 23.185 16.9885 24.2644 18.3155 24.2644C19.6425 24.2644 20.7219 23.185 20.7219 21.858C20.7219 21.241 20.4869 20.6799 20.1041 20.2538H20.8556C21.2248 20.2538 21.524 19.9545 21.524 19.5854C21.524 19.2161 21.2248 18.9169 20.8556 18.9169H8.03683L8.75865 16.9116H20.8555C21.2044 16.9116 21.513 16.6863 21.6193 16.3544L24.9615 5.92662C25.0382 5.68862 24.9988 5.42841 24.8557 5.2232ZM9.49217 22.9278C8.90232 22.9278 8.42263 22.4482 8.42263 21.8583C8.42263 21.2685 8.90232 20.7888 9.49217 20.7888C10.082 20.7888 10.5616 21.2685 10.5616 21.8583C10.5616 22.4482 10.082 22.9278 9.49217 22.9278ZM18.3155 22.9278C17.7256 22.9278 17.246 22.4482 17.246 21.8583C17.246 21.2685 17.7256 20.7888 18.3155 20.7888C18.9053 20.7888 19.385 21.2685 19.385 21.8583C19.385 22.4482 18.9053 22.9278 18.3155 22.9278Z" fill="currentColor"/>
</symbol><symbol id="icon-basket" viewBox="0 0 24 23">
<path d="M23.8615 4.38674C23.7241 4.18625 23.5031 4.06232 23.2629 4.05188L8.3755 3.39845C7.94835 3.37942 7.5914 3.71521 7.57314 4.14813C7.55499 4.58089 7.88422 4.94654 8.30933 4.96514L22.1889 5.57438L19.4599 14.2445H7.31544L5.12138 2.07989C5.07315 1.81328 4.89338 1.59085 4.64546 1.49181L1.05195 0.0543012C0.655904 -0.103587 0.208991 0.0944979 0.0534498 0.497285C-0.101823 0.900291 0.0926574 1.35564 0.488493 1.51402L3.6837 2.79216L5.91649 15.1703C5.98378 15.5424 6.30228 15.8127 6.674 15.8127H7.04437L6.19862 18.2048C6.12783 18.4052 6.15699 18.6277 6.27746 18.8018C6.39777 18.9759 6.59343 19.0795 6.80231 19.0795H7.39552C7.02794 19.4961 6.80231 20.0445 6.80231 20.6477C6.80231 21.9448 7.83884 23 9.11244 23C10.386 23 11.4226 21.9448 11.4226 20.6477C11.4226 20.0446 11.1969 19.4961 10.8294 19.0795H15.8661C15.4983 19.4961 15.2728 20.0445 15.2728 20.6477C15.2728 21.9448 16.309 23 17.5829 23C18.8568 23 19.893 21.9448 19.893 20.6477C19.893 20.0446 19.6674 19.4961 19.3 19.0795H20.0214C20.3759 19.0795 20.6631 18.7869 20.6631 18.4261C20.6631 18.0652 20.3758 17.7727 20.0214 17.7727H7.71536L8.40831 15.8124H20.0213C20.3562 15.8124 20.6525 15.5922 20.7545 15.2677L23.963 5.07435C24.0367 4.8417 23.9989 4.58734 23.8615 4.38674ZM9.11249 21.6934C8.54624 21.6934 8.08574 21.2246 8.08574 20.648C8.08574 20.0714 8.54624 19.6025 9.11249 19.6025C9.67875 19.6025 10.1392 20.0714 10.1392 20.648C10.1392 21.2246 9.67875 21.6934 9.11249 21.6934ZM17.5829 21.6934C17.0166 21.6934 16.5562 21.2246 16.5562 20.648C16.5562 20.0714 17.0166 19.6025 17.5829 19.6025C18.1491 19.6025 18.6096 20.0714 18.6096 20.648C18.6096 21.2246 18.1491 21.6934 17.5829 21.6934Z" fill="white"/>
</symbol><symbol id="icon-fav-2" viewBox="0 0 25 22">
<path d="M18.3594 0C17.0028 0 15.759 0.428513 14.6627 1.27366C13.6117 2.08392 12.912 3.11592 12.5 3.86635C12.088 3.11587 11.3883 2.08392 10.3373 1.27366C9.24097 0.428513 7.99722 0 6.64062 0C2.85488 0 0 3.08667 0 7.17989C0 11.602 3.56167 14.6275 8.95356 19.2078C9.86919 19.9856 10.907 20.8672 11.9857 21.8075C12.1279 21.9317 12.3105 22 12.5 22C12.6895 22 12.8721 21.9317 13.0143 21.8076C14.0931 20.8671 15.1309 19.9855 16.047 19.2073C21.4383 14.6275 25 11.602 25 7.17989C25 3.08667 22.1451 0 18.3594 0Z" fill="#3E7AEA"/>
</symbol><symbol id="icon-fav" viewBox="0 0 25 22">
<path d="M11.8864 4.20319C12.0093 4.42716 12.2445 4.56635 12.5 4.56635C12.7555 4.56636 12.9907 4.42717 13.1136 4.20321C13.499 3.50111 14.1426 2.55853 15.0901 1.82805C16.0666 1.07524 17.1608 0.7 18.3594 0.7C21.7081 0.7 24.3 3.4208 24.3 7.17989C24.3 9.17489 23.5062 10.8836 22.007 12.6869C20.49 14.5116 18.3057 16.3701 15.5938 18.6738L16.047 19.2073L15.5938 18.6738L15.5936 18.674C14.6778 19.4519 13.6369 20.3362 12.5543 21.2799L12.554 21.2802C12.5399 21.2925 12.5209 21.3 12.5 21.3C12.4791 21.3 12.4602 21.2925 12.4461 21.2802L12.4457 21.2799C11.364 20.337 10.3237 19.4533 9.409 18.6762L9.40677 18.6743L9.40675 18.6743C6.69462 16.3704 4.51014 14.5117 2.99309 12.687C1.49377 10.8836 0.7 9.17489 0.7 7.17989C0.7 3.4208 3.29194 0.7 6.64062 0.7C7.83922 0.7 8.93336 1.07524 9.90987 1.82805C10.8574 2.55854 11.501 3.50108 11.8864 4.20319Z" stroke="#CCCCCC" stroke-width="1.4" stroke-linejoin="round"/>
</symbol><symbol id="icon-heart" viewBox="0 0 25 25">
<path d="M12.5 23.6092C12.1441 23.6092 11.8009 23.4802 11.5335 23.246C10.5236 22.3629 9.54989 21.533 8.69082 20.801L8.68643 20.7972C6.16778 18.6508 3.99284 16.7973 2.47955 14.9714C0.787924 12.9301 0 10.9947 0 8.88042C0 6.82621 0.704383 4.93107 1.98326 3.54385C3.27739 2.14024 5.05313 1.36719 6.98394 1.36719C8.42703 1.36719 9.74863 1.82343 10.9119 2.72312C11.499 3.17726 12.0312 3.73306 12.5 4.38137C12.969 3.73306 13.501 3.17726 14.0882 2.72312C15.2515 1.82343 16.5731 1.36719 18.0162 1.36719C19.9468 1.36719 21.7228 2.14024 23.0169 3.54385C24.2958 4.93107 25 6.82621 25 8.88042C25 10.9947 24.2122 12.9301 22.5206 14.9712C21.0073 16.7973 18.8326 18.6506 16.3143 20.7968C15.4537 21.53 14.4785 22.3612 13.4662 23.2464C13.199 23.4802 12.8557 23.6092 12.5 23.6092ZM6.98394 2.83165C5.46702 2.83165 4.07352 3.43704 3.05976 4.53644C2.03094 5.65243 1.46427 7.19509 1.46427 8.88042C1.46427 10.6586 2.12516 12.249 3.60698 14.0369C5.03921 15.7652 7.16952 17.5806 9.6361 19.6827L9.64068 19.6865C10.503 20.4214 11.4805 21.2545 12.4979 22.1441C13.5214 21.2528 14.5004 20.4184 15.3644 19.6823C17.8308 17.5802 19.9609 15.7652 21.3932 14.0369C22.8748 12.249 23.5357 10.6586 23.5357 8.88042C23.5357 7.19509 22.969 5.65243 21.9402 4.53644C20.9266 3.43704 19.5329 2.83165 18.0162 2.83165C16.905 2.83165 15.8848 3.18489 14.9839 3.88145C14.1811 4.50249 13.6219 5.28755 13.294 5.83687C13.1254 6.11935 12.8286 6.28796 12.5 6.28796C12.1713 6.28796 11.8746 6.11935 11.7059 5.83687C11.3783 5.28755 10.819 4.50249 10.016 3.88145C9.1152 3.18489 8.09496 2.83165 6.98394 2.83165Z" fill="currentColor"/>
</symbol><symbol id="icon-logo-2" viewBox="0 0 185 100">
<rect x="13.1136" y="62.29" width="158.457" height="8.74246" fill="currentColor"/>
<path d="M97.5314 10.6164C96.6025 10.6164 95.6736 11.2378 95.0544 12.2734C90.8745 20.1443 86.5397 28.0152 82.3598 35.8861C82.0502 36.3004 81.8954 36.9218 81.5858 37.336C80.8117 36.3004 80.0377 35.2647 79.4184 34.022C76.0126 29.0509 72.7615 24.0798 69.5105 18.6944C69.046 17.8659 68.4268 17.0374 67.9623 16.0017C67.4979 15.1732 66.8787 14.1376 66.4142 13.309C65.9498 12.4805 65.4854 11.4449 64.8661 10.6164C64.4017 9.58073 63.9372 8.75221 63.4728 7.71656C63.0084 6.68092 62.5439 5.8524 62.0795 4.81675C61.9247 4.4025 61.6151 3.78111 61.4603 3.36685C61.3054 2.95259 60.9958 2.3312 60.841 1.91695C60.6862 1.70982 60.6862 1.50269 60.5314 1.29556C60.3766 1.08843 60.2218 0.881301 60.0669 0.674171C59.6025 0.259913 59.2929 0.0527836 58.8285 0.0527836C58.2092 -0.154346 57.4351 0.259913 56.9707 1.08843C53.41 6.26666 49.5397 11.0306 45.6695 15.7946C43.6569 18.073 41.7992 20.3514 39.7866 22.6299C35.7615 27.1867 31.8912 31.5364 27.8661 36.3004C21.9833 43.1357 16.2552 50.3852 11.1464 58.6703C7.43096 64.2628 3.71548 70.0624 0 75.6549H185C178.653 66.127 172.151 57.0133 165.339 48.7281C163.946 47.0711 162.552 45.4141 161.004 43.757C158.063 40.443 155.276 37.336 152.18 34.4362C147.69 30.0865 143.201 25.9439 138.402 22.6299C137.318 22.0085 136.389 21.18 135.305 20.5586C134.222 19.9372 133.138 19.3158 132.054 18.6944C131.435 18.4873 130.971 18.073 130.351 17.8659C129.887 17.6588 129.268 17.2445 128.803 17.0374C128.339 16.8302 127.41 17.0374 126.946 17.2445C126.636 17.4516 126.326 17.6588 126.172 18.073C123.23 23.2513 120.134 28.2223 116.883 32.9863C116.109 31.9507 115.18 30.7079 114.406 29.6723C113.632 28.6366 112.703 27.3938 111.774 26.3582C110.845 25.3225 110.071 24.2869 109.142 23.0441C108.213 22.0085 107.439 20.9728 106.51 19.9372C105.582 18.9015 104.808 17.8659 103.879 16.8302C102.95 15.7946 102.176 14.759 101.247 13.7233C100.782 13.3091 100.318 12.6877 100.008 12.2734C99.5439 11.652 98.7699 10.4092 97.5314 10.6164ZM126.017 22.6299L131.435 28.6366L127.41 20.3514C127.565 20.1443 127.874 19.9372 128.184 19.9372C128.339 19.9372 128.339 19.9372 128.339 19.9372C134.531 22.837 140.724 27.1867 147.226 33.1935C146.762 34.2291 146.142 35.0576 145.678 36.0933L144.13 34.2291L144.439 36.9218C143.046 36.7146 141.653 35.8861 140.259 35.0576C139.95 34.8505 139.64 34.8505 139.485 34.6434L129.268 21.8013L135.925 32.9863L133.448 31.1222L135.615 34.8505C132.519 35.679 129.423 36.9218 126.172 38.1646C122.921 39.6145 119.515 41.0644 116.264 42.7214C115.799 42.9285 115.18 43.1357 114.715 43.5499L120.444 35.2647L112.238 43.9642C116.728 37.5432 121.372 30.5008 126.017 22.6299ZM86.2301 33.6077L96.4477 14.5518C96.6025 14.1376 97.0669 13.9304 97.5314 13.9304C97.841 13.9304 98.1506 14.1376 98.3054 14.3447L95.2092 35.8861L100.163 16.416C102.95 19.7301 105.736 23.0441 108.368 26.3582C108.368 26.3582 108.213 26.3582 108.213 26.1511C106.82 25.1154 105.272 23.8726 105.272 23.8726C105.272 23.8726 106.356 25.9439 107.594 27.601C108.059 28.4295 108.678 29.0509 108.987 29.6723C107.594 31.3293 106.046 32.7792 104.808 34.6434C101.711 38.7859 99.3891 44.9998 95.2092 46.0355C93.8159 46.4497 92.5774 46.2426 91.3389 45.6212L97.0669 18.4873L89.636 44.5856C88.2427 43.5499 86.8494 42.1 85.6109 40.443C85.3013 40.0287 85.1464 39.8216 84.8368 39.4073L89.9456 29.4651L86.2301 33.6077ZM57.7448 0.259914C57.4351 0.467043 57.2803 0.67417 57.1255 0.881299C57.2803 0.67417 57.4351 0.467043 57.7448 0.259914ZM37.1548 29.0509C43.5021 21.8013 50.0042 14.5518 55.887 6.26666L58.8285 29.258L57.8996 3.78111C58.0544 3.57398 58.0544 3.57398 58.2092 3.36685C58.364 3.15972 58.5188 2.95259 58.6736 2.95259C58.9833 2.95259 59.1381 3.15972 59.2929 3.57398C63.9372 14.3447 69.6653 23.6655 75.3933 32.1578C72.2971 35.8861 69.2008 39.4073 65.9498 42.5143L64.2469 33.4006L64.5565 40.2358L58.9833 8.33795L60.841 46.0355C50.4686 40.6501 39.3222 44.3784 28.795 48.521C26.4728 49.5567 23.9958 50.5923 21.6736 51.4208L38.2385 31.3293L19.9707 49.5567C25.5439 42.3071 31.4268 35.4719 37.1548 29.0509ZM165.184 69.2339C160.849 69.2339 154.812 69.6482 147.381 69.6482C139.95 69.6482 131.435 70.0624 122.146 70.0624C112.858 70.0624 103.105 70.2696 93.1967 70.2696C83.2887 70.2696 73.5356 70.0624 64.2469 70.0624C54.9582 70.0624 46.4435 69.8553 39.0126 69.6482C31.5816 69.441 25.5439 69.2339 21.2092 69.2339C16.8745 69.0268 14.3975 69.0268 14.3975 69.0268C14.3975 69.0268 16.8745 69.0268 21.2092 68.8197C25.5439 68.8197 31.5816 68.4054 39.0126 68.4054C46.4435 68.4054 54.9582 67.9911 64.2469 67.9911C73.5356 67.9911 83.2887 67.784 93.1967 67.784C103.105 67.784 112.858 67.9911 122.146 67.9911C131.435 67.9911 139.95 68.1983 147.381 68.4054C154.812 68.6125 160.849 68.8197 165.184 68.8197C169.519 69.0268 171.996 69.0268 171.996 69.0268C171.996 69.0268 169.519 69.0268 165.184 69.2339Z" fill="currentColor"/>
<path d="M30.5311 97.6733C31.4578 97.6733 32.3087 97.5551 33.0838 97.3188C33.8588 97.0668 34.5328 96.6966 35.1057 96.2083C35.6955 95.7042 36.1672 95.0662 36.521 94.2944C36.8749 93.5226 37.0939 92.6011 37.1782 91.5299H27.6499V89.7578H37.1782C37.0939 88.7181 36.8749 87.8203 36.521 87.0642C36.1672 86.3081 35.7038 85.6858 35.131 85.1975C34.5749 84.6935 33.9263 84.3233 33.1849 84.087C32.4435 83.8507 31.6432 83.7326 30.7839 83.7326C29.6381 83.7326 28.5345 83.9216 27.473 84.2996C26.4283 84.662 25.4258 85.2605 24.4654 86.0954L23.2017 84.6777C24.1621 83.8428 25.3247 83.1812 26.6895 82.6929C28.0543 82.2046 29.5033 81.9604 31.0366 81.9604C32.553 81.9604 33.9263 82.1495 35.1562 82.5275C36.4031 82.9056 37.4646 83.4648 38.3407 84.2051C39.2338 84.9455 39.9245 85.8591 40.4132 86.946C40.9019 88.0329 41.1461 89.2852 41.1461 90.7029C41.1461 92.1206 40.9019 93.3729 40.4132 94.4598C39.9245 95.5467 39.2253 96.4603 38.3155 97.2007C37.4224 97.9411 36.3356 98.5002 35.0551 98.8783C33.7915 99.2563 32.3677 99.4454 30.7839 99.4454C29.2506 99.4454 27.8016 99.2012 26.4368 98.7129C25.072 98.2246 23.9094 97.563 22.949 96.7281L24.2127 95.3104C25.1731 96.1453 26.1756 96.7517 27.2203 97.1298C28.2818 97.4921 29.3854 97.6733 30.5311 97.6733ZM45.4437 82.433H54.0368C55.3341 82.433 56.4546 82.5433 57.3982 82.7638C58.3587 82.9686 59.1505 83.2679 59.774 83.6617C60.3974 84.0397 60.8608 84.4966 61.164 85.0321C61.4673 85.5677 61.619 86.1584 61.619 86.8042C61.619 87.6391 61.3662 88.3637 60.8608 88.978C60.3553 89.5924 59.5971 90.0492 58.5861 90.3485C59.8498 90.5848 60.8355 91.0495 61.5432 91.7426C62.2676 92.4199 62.6299 93.2941 62.6299 94.3653C62.6299 95.783 61.9981 96.9092 60.7344 97.7441C59.4875 98.5632 57.5077 98.9728 54.795 98.9728H45.4437V82.433ZM49.1084 91.4118V97.2007H54.795C56.0587 97.2007 57.0275 96.9644 57.7015 96.4918C58.3755 96.0193 58.7125 95.3104 58.7125 94.3653C58.7125 93.3572 58.3755 92.6168 57.7015 92.1442C57.0275 91.6559 56.0587 91.4118 54.795 91.4118H49.1084ZM54.0368 89.6396C56.4799 89.6396 57.7015 88.6945 57.7015 86.8042C57.7015 85.9694 57.3898 85.3314 56.7664 84.8904C56.1598 84.4335 55.25 84.2051 54.0368 84.2051H49.1084V89.6396H54.0368ZM70.5863 84.2051V89.6396H79.8112V91.4118H70.5863V97.2007H82.3386V98.9728H66.9216V82.433H82.3386V84.2051H70.5863ZM95.2273 82.433C96.4909 82.433 97.6198 82.5669 98.614 82.8347C99.6249 83.0867 100.476 83.4648 101.167 83.9689C101.857 84.4572 102.388 85.0636 102.759 85.7882C103.13 86.4971 103.315 87.3083 103.315 88.2219C103.315 89.1356 103.13 89.9547 102.759 90.6793C102.388 91.3881 101.857 91.9946 101.167 92.4987C100.476 92.987 99.6249 93.365 98.614 93.6328C97.6198 93.8848 96.4909 94.0109 95.2273 94.0109H89.7934V98.9728H86.1287V82.433H95.2273ZM89.7934 84.2051V92.2387H95.2273C96.5583 92.2387 97.5862 91.9158 98.3107 91.27C99.0521 90.6084 99.4227 89.5924 99.4227 88.2219C99.4227 86.8515 99.0521 85.8434 98.3107 85.1975C97.5862 84.5359 96.5583 84.2051 95.2273 84.2051H89.7934ZM111.024 84.2051V89.6396H120.249V91.4118H111.024V97.2007H122.777V98.9728H107.36V82.433H122.777V84.2051H111.024ZM135.911 97.6733C137.057 97.6733 138.152 97.4921 139.197 97.1298C140.258 96.7517 141.269 96.1453 142.23 95.3104L143.493 96.7281C142.533 97.563 141.37 98.2246 140.006 98.7129C138.641 99.2012 137.192 99.4454 135.658 99.4454C134.075 99.4454 132.643 99.2563 131.362 98.8783C130.098 98.5002 129.011 97.9411 128.102 97.2007C127.209 96.4603 126.518 95.5467 126.029 94.4598C125.541 93.3729 125.296 92.1206 125.296 90.7029C125.296 89.2852 125.532 88.0329 126.004 86.946C126.493 85.8591 127.175 84.9455 128.051 84.2051C128.944 83.4648 130.014 82.9056 131.261 82.5275C132.508 82.1495 133.889 81.9604 135.406 81.9604C136.939 81.9604 138.388 82.2046 139.753 82.6929C141.118 83.1812 142.28 83.8428 143.241 84.6777L141.977 86.0954C141.017 85.2605 140.006 84.662 138.944 84.2996C137.899 83.9216 136.804 83.7326 135.658 83.7326C134.749 83.7326 133.898 83.8743 133.106 84.1579C132.314 84.4257 131.632 84.8431 131.059 85.4102C130.486 85.9773 130.031 86.7019 129.694 87.584C129.374 88.4503 129.214 89.49 129.214 90.7029C129.214 91.9158 129.374 92.9633 129.694 93.8455C130.031 94.7118 130.494 95.4286 131.084 95.9956C131.69 96.5627 132.398 96.988 133.207 97.2716C134.033 97.5394 134.934 97.6733 135.911 97.6733ZM162.828 84.2051H156.004V98.9728H152.34V84.2051H145.516V82.433H162.828V84.2051Z" fill="currentColor"/>
</symbol><symbol id="icon-logo" viewBox="0 0 159 85">
<rect x="11.2087" y="53.2417" width="135.44" height="7.47253" fill="currentColor"/>
<path d="M83.3639 9.07423C82.57 9.07423 81.776 9.60536 81.2467 10.4906C77.674 17.2181 73.9689 23.9457 70.3962 30.6733C70.1316 31.0274 69.9992 31.5585 69.7346 31.9126C69.073 31.0274 68.4113 30.1422 67.882 29.0799C64.9709 24.8309 62.1921 20.5819 59.4133 15.9788C59.0164 15.2707 58.4871 14.5625 58.0901 13.6773C57.6931 12.9691 57.1638 12.0839 56.7669 11.3758C56.3699 10.6676 55.9729 9.7824 55.4436 9.07423C55.0467 8.18902 54.6497 7.48086 54.2527 6.59565C53.8557 5.71044 53.4588 5.00228 53.0618 4.11707C52.9295 3.76299 52.6648 3.23186 52.5325 2.87778C52.4002 2.5237 52.1355 1.99257 52.0032 1.63849C51.8709 1.46145 51.8709 1.28441 51.7386 1.10737C51.6062 0.930324 51.4739 0.753282 51.3416 0.576241C50.9446 0.222158 50.68 0.0451162 50.283 0.0451162C49.7537 -0.131925 49.0921 0.222158 48.6951 0.930324C45.6517 5.35636 42.3436 9.42832 39.0355 13.5003C37.3153 15.4477 35.7274 17.3952 34.0072 19.3426C30.5668 23.2375 27.2587 26.9554 23.8183 31.0274C18.79 36.8697 13.894 43.0662 9.5273 50.1479C6.35154 54.928 3.17577 59.8851 0 64.6653H158.127C152.702 56.5213 147.144 48.7315 141.322 41.6499C140.131 40.2335 138.94 38.8172 137.617 37.4009C135.102 34.5682 132.721 31.9126 130.074 29.434C126.237 25.7161 122.399 22.1753 118.297 19.3426C117.371 18.8115 116.577 18.1033 115.651 17.5722C114.725 17.0411 113.798 16.51 112.872 15.9788C112.343 15.8018 111.946 15.4477 111.417 15.2707C111.02 15.0936 110.49 14.7396 110.093 14.5625C109.696 14.3855 108.902 14.5625 108.505 14.7396C108.241 14.9166 107.976 15.0936 107.844 15.4477C105.33 19.8738 102.683 24.1228 99.9044 28.1947C99.2428 27.3095 98.4488 26.2473 97.7872 25.362C97.1256 24.4768 96.3316 23.4146 95.5377 22.5294C94.7438 21.6442 94.0821 20.759 93.2882 19.6967C92.4943 18.8115 91.8326 17.9263 91.0387 17.0411C90.2448 16.1559 89.5831 15.2707 88.7892 14.3855C87.9952 13.5003 87.3336 12.6151 86.5397 11.7299C86.1427 11.3758 85.7457 10.8446 85.4811 10.4906C85.0841 9.95944 84.4225 8.89719 83.3639 9.07423ZM107.711 19.3426L112.343 24.4768L108.902 17.3952C109.035 17.2181 109.299 17.0411 109.564 17.0411C109.696 17.0411 109.696 17.0411 109.696 17.0411C114.989 19.5197 120.282 23.2376 125.84 28.3718C125.443 29.257 124.914 29.9651 124.517 30.8503L123.193 29.257L123.458 31.5585C122.267 31.3815 121.076 30.6733 119.885 29.9651C119.621 29.7881 119.356 29.7881 119.224 29.611L110.49 18.6345L116.18 28.1947L114.063 26.6013L115.916 29.7881C113.269 30.4962 110.623 31.5585 107.844 32.6207C105.065 33.86 102.154 35.0993 99.3751 36.5157C98.9781 36.6927 98.4488 36.8697 98.0518 37.2238L102.948 30.1422L95.9347 37.5779C99.7721 32.0896 103.742 26.0702 107.711 19.3426ZM73.7043 28.7258L82.4377 12.438C82.57 12.0839 82.9669 11.9069 83.3639 11.9069C83.6286 11.9069 83.8932 12.0839 84.0255 12.261L81.3791 30.6733L85.6134 14.0314C87.9952 16.8641 90.3771 19.6967 92.6266 22.5294C92.6266 22.5294 92.4943 22.5294 92.4943 22.3523C91.3033 21.4671 89.9801 20.4049 89.9801 20.4049C89.9801 20.4049 90.9064 22.1753 91.965 23.5916C92.3619 24.2998 92.8912 24.8309 93.1559 25.362C91.965 26.7784 90.6417 28.0177 89.5831 29.611C86.9367 33.1519 84.9518 38.4631 81.3791 39.3483C80.1881 39.7024 79.1296 39.5254 78.071 38.9942L82.9669 15.8018L76.6154 38.109C75.4245 37.2238 74.2336 35.9845 73.175 34.5682C72.9103 34.2141 72.778 34.0371 72.5134 33.683L76.8801 25.185L73.7043 28.7258ZM49.3567 0.222158C49.0921 0.3992 48.9598 0.57624 48.8274 0.753281C48.9598 0.57624 49.0921 0.3992 49.3567 0.222158ZM31.7577 24.8309C37.183 18.6345 42.7405 12.438 47.7688 5.35636L50.283 25.008L49.4891 3.23186C49.6214 3.05482 49.6214 3.05482 49.7537 2.87778C49.886 2.70074 50.0184 2.5237 50.1507 2.5237C50.4153 2.5237 50.5476 2.70074 50.68 3.05482C54.6497 12.261 59.5457 20.2278 64.4416 27.4865C61.7952 30.6733 59.1487 33.683 56.3699 36.3386L54.9143 28.5488L55.179 34.3912L50.4153 7.12678L52.0032 39.3483C43.1375 34.7452 33.6102 37.932 24.6122 41.4728C22.6273 42.358 20.5102 43.2432 18.5253 43.9514L32.684 26.7784L17.0698 42.358C21.8334 36.1616 26.8617 30.3192 31.7577 24.8309ZM141.189 59.177C137.484 59.177 132.324 59.531 125.972 59.531C119.621 59.531 112.343 59.8851 104.403 59.8851C96.464 59.8851 88.1276 60.0622 79.6589 60.0622C71.1901 60.0622 62.8537 59.8851 54.9143 59.8851C46.9749 59.8851 39.6971 59.7081 33.3456 59.531C26.994 59.354 21.8334 59.177 18.1283 59.177C14.4233 58.9999 12.3061 58.9999 12.3061 58.9999C12.3061 58.9999 14.4233 58.9999 18.1283 58.8229C21.8334 58.8229 26.994 58.4688 33.3456 58.4688C39.6971 58.4688 46.9749 58.1147 54.9143 58.1147C62.8537 58.1147 71.1901 57.9377 79.6589 57.9377C88.1276 57.9377 96.464 58.1147 104.403 58.1147C112.343 58.1147 119.621 58.2918 125.972 58.4688C132.324 58.6458 137.484 58.8229 141.189 58.8229C144.894 58.9999 147.012 58.9999 147.012 58.9999C147.012 58.9999 144.894 58.9999 141.189 59.177Z" fill="currentColor"/>
<path d="M26.0961 83.4853C26.8882 83.4853 27.6155 83.3843 28.278 83.1823C28.9405 82.967 29.5165 82.6505 30.0062 82.2331C30.5103 81.8023 30.9135 81.257 31.2159 80.5973C31.5184 79.9376 31.7056 79.1499 31.7776 78.2343H23.6334V76.7196H31.7776C31.7056 75.831 31.5184 75.0635 31.2159 74.4173C30.9135 73.771 30.5174 73.2392 30.0278 72.8218C29.5525 72.3909 28.9981 72.0745 28.3644 71.8726C27.7307 71.6706 27.0466 71.5696 26.3121 71.5696C25.3328 71.5696 24.3895 71.7312 23.4822 72.0543C22.5893 72.364 21.7324 72.8756 20.9115 73.5892L19.8314 72.3775C20.6523 71.6639 21.646 71.0984 22.8125 70.681C23.9791 70.2636 25.2176 70.0549 26.5282 70.0549C27.8243 70.0549 28.9981 70.2165 30.0494 70.5396C31.1152 70.8628 32.0225 71.3407 32.7713 71.9736C33.5346 72.6064 34.125 73.3873 34.5427 74.3163C34.9604 75.2453 35.1692 76.3157 35.1692 77.5275C35.1692 78.7392 34.9604 79.8096 34.5427 80.7386C34.125 81.6676 33.5274 82.4485 32.7497 83.0814C31.9864 83.7142 31.0575 84.1921 29.963 84.5153C28.8829 84.8384 27.6659 85 26.3121 85C25.0016 85 23.763 84.7913 22.5965 84.3739C21.43 83.9566 20.4363 83.3911 19.6154 82.6774L20.6955 81.4657C21.5164 82.1793 22.3733 82.6976 23.2662 83.0208C24.1735 83.3305 25.1168 83.4853 26.0961 83.4853ZM38.8425 70.4589H46.1874C47.2962 70.4589 48.254 70.5531 49.0605 70.7416C49.8814 70.9166 50.5582 71.1724 51.0912 71.509C51.624 71.8322 52.0201 72.2226 52.2793 72.6804C52.5385 73.1382 52.6681 73.6431 52.6681 74.1951C52.6681 74.9087 52.4521 75.5281 52.0201 76.0532C51.588 76.5782 50.9399 76.9687 50.0758 77.2245C51.156 77.4265 51.9985 77.8237 52.6033 78.4161C53.2226 78.995 53.5322 79.7423 53.5322 80.6578C53.5322 81.8696 52.9922 82.8322 51.912 83.5459C50.8463 84.246 49.154 84.5961 46.8354 84.5961H38.8425V70.4589ZM41.9749 78.1333V83.0814H46.8354C47.9156 83.0814 48.7436 82.8794 49.3197 82.4755C49.8958 82.0716 50.1838 81.4657 50.1838 80.6578C50.1838 79.7962 49.8958 79.1633 49.3197 78.7594C48.7436 78.342 47.9156 78.1333 46.8354 78.1333H41.9749ZM46.1874 76.6186C48.2756 76.6186 49.3197 75.8108 49.3197 74.1951C49.3197 73.4815 49.0533 72.9362 48.5204 72.5592C48.002 72.1688 47.2243 71.9736 46.1874 71.9736H41.9749V76.6186H46.1874ZM60.3328 71.9736V76.6186H68.2178V78.1333H60.3328V83.0814H70.378V84.5961H57.2005V70.4589H70.378V71.9736H60.3328ZM81.3945 70.4589C82.4746 70.4589 83.4395 70.5733 84.2892 70.8022C85.1533 71.0176 85.8806 71.3407 86.4711 71.7716C87.0616 72.189 87.5152 72.7073 87.832 73.3267C88.1488 73.9326 88.3073 74.626 88.3073 75.4069C88.3073 76.1878 88.1488 76.8879 87.832 77.5073C87.5152 78.1131 87.0616 78.6315 86.4711 79.0624C85.8806 79.4797 85.1533 79.8028 84.2892 80.0318C83.4395 80.2472 82.4746 80.3549 81.3945 80.3549H76.7499V84.5961H73.6175V70.4589H81.3945ZM76.7499 71.9736V78.8402H81.3945C82.5322 78.8402 83.4107 78.5642 84.03 78.0122C84.6637 77.4467 84.9805 76.5782 84.9805 75.4069C84.9805 74.2355 84.6637 73.3738 84.03 72.8218C83.4107 72.2563 82.5322 71.9736 81.3945 71.9736H76.7499ZM94.8969 71.9736V76.6186H102.782V78.1333H94.8969V83.0814H104.942V84.5961H91.7646V70.4589H104.942V71.9736H94.8969ZM116.169 83.4853C117.148 83.4853 118.084 83.3305 118.977 83.0208C119.884 82.6976 120.748 82.1793 121.569 81.4657L122.649 82.6774C121.829 83.3911 120.835 83.9566 119.668 84.3739C118.502 84.7913 117.263 85 115.953 85C114.599 85 113.375 84.8384 112.28 84.5153C111.2 84.1921 110.271 83.7142 109.493 83.0814C108.73 82.4485 108.14 81.6676 107.722 80.7386C107.304 79.8096 107.096 78.7392 107.096 77.5275C107.096 76.3157 107.297 75.2453 107.7 74.3163C108.118 73.3873 108.701 72.6064 109.45 71.9736C110.214 71.3407 111.128 70.8628 112.194 70.5396C113.26 70.2165 114.44 70.0549 115.737 70.0549C117.047 70.0549 118.286 70.2636 119.452 70.681C120.619 71.0984 121.612 71.6639 122.433 72.3775L121.353 73.5892C120.532 72.8756 119.668 72.364 118.761 72.0543C117.868 71.7312 116.932 71.5696 115.953 71.5696C115.175 71.5696 114.448 71.6908 113.771 71.9332C113.094 72.1621 112.511 72.5188 112.021 73.0036C111.531 73.4883 111.142 74.1076 110.854 74.8616C110.581 75.6021 110.444 76.4907 110.444 77.5275C110.444 78.5642 110.581 79.4595 110.854 80.2135C111.142 80.954 111.539 81.5667 112.043 82.0514C112.561 82.5361 113.166 82.8996 113.857 83.142C114.563 83.3709 115.333 83.4853 116.169 83.4853ZM139.176 71.9736H133.343V84.5961H130.211V71.9736H124.378V70.4589H139.176V71.9736Z" fill="currentColor"/>
</symbol><symbol id="icon-minus" viewBox="0 0 16 2">
<path d="M1 1H15" stroke="white" stroke-width="2" stroke-linecap="round"/>
</symbol><symbol id="icon-plus" viewBox="0 0 16 16">
<path d="M8 15L8 1" stroke="white" stroke-width="2" stroke-linecap="round"/>
<path d="M1 8H15" stroke="white" stroke-width="2" stroke-linecap="round"/>
</symbol><symbol id="icon-tel" viewBox="0 0 25 25">
<path d="M23.8253 18.8677L23.8253 18.8677C24.3896 19.4308 24.4396 20.4714 23.8066 21.2101L21.4529 23.5588L21.972 24.0791L21.4529 23.5588C21.0039 24.0068 20.3314 24.2633 19.4012 24.265C18.465 24.2667 17.3185 24.0074 16.023 23.4768C13.4348 22.4168 10.3921 20.3317 7.50765 17.4534C4.62559 14.5774 2.56727 11.5424 1.5201 8.95984C0.996026 7.66735 0.738484 6.52085 0.735035 5.58291C0.731614 4.65261 0.975784 3.98053 1.39655 3.53466L3.76175 1.17442C4.32694 0.610421 5.37225 0.560586 6.11338 1.19307L9.59087 4.66324C10.4707 5.54126 10.0819 6.97701 9.02026 7.30297L9.01212 7.30547L9.00404 7.30816C8.09842 7.60936 7.69822 8.37353 7.58045 9.10568C7.46756 9.80745 7.58689 10.573 7.79259 11.2018C8.49507 14.0858 11.0827 16.5297 13.8221 17.2131L13.8314 17.2155L13.8408 17.2176C14.4297 17.3482 15.1863 17.4598 15.8783 17.3564C16.5935 17.2495 17.3681 16.8816 17.6747 15.9637L17.6774 15.9556L17.6799 15.9474C18.0058 14.8904 19.4467 14.4984 20.3291 15.3789L23.8253 18.8677Z" stroke="currentColor" fill="none" stroke-width="1.47"/>
</symbol><symbol id="icon-user" viewBox="0 0 25 25">
<path d="M12.5 14.0814C4.98843 14.0814 0.851562 17.6349 0.851562 24.0876C0.851562 24.5915 1.26001 25 1.76396 25H23.236C23.7399 25 24.1484 24.5915 24.1484 24.0876C24.1484 17.6353 20.0116 14.0814 12.5 14.0814ZM2.70957 23.1751C3.06846 18.3506 6.35767 15.9063 12.5 15.9063C18.6423 15.9063 21.9316 18.3506 22.2908 23.1751H2.70957Z" fill="currentColor"/>
<path d="M12.5001 0C9.04961 0 6.44775 2.6542 6.44775 6.17368C6.44775 9.79624 9.1628 12.743 12.5001 12.743C15.8373 12.743 18.5524 9.79624 18.5524 6.17397C18.5524 2.6542 15.9505 0 12.5001 0ZM12.5001 10.9185C10.1689 10.9185 8.27256 8.79014 8.27256 6.17397C8.27256 3.65391 10.0505 1.8248 12.5001 1.8248C14.9104 1.8248 16.7276 3.69434 16.7276 6.17397C16.7276 8.79014 14.8313 10.9185 12.5001 10.9185Z" fill="currentColor"/>
</symbol></svg>