<svg xmlns="http://www.w3.org/2000/svg" xmlns:xlink="http://www.w3.org/1999/xlink"><symbol id="icon-arrow" viewBox="0 0 22 38">
<path d="M21.5358 17.9572L2.69448 0.429717C2.07716 -0.144214 1.07772 -0.14325 0.461437 0.432686C-0.154367 1.00855 -0.152776 1.9414 0.464619 2.51578L18.1845 19.0001L0.463976 35.4843C-0.153339 36.0587 -0.15493 36.991 0.460793 37.5669C0.769729 37.8556 1.17446 38 1.57919 38C1.98288 38 2.38601 37.8566 2.69439 37.5699L21.5358 20.0428C21.8332 19.7669 22 19.3914 22 19.0001C22 18.6088 21.8327 18.2337 21.5358 17.9572Z" fill="currentColor"/>
</symbol><symbol id="icon-basket" viewBox="0 0 24 23">
<path d="M23.8615 4.38674C23.7241 4.18625 23.5031 4.06232 23.2629 4.05188L8.3755 3.39845C7.94835 3.37942 7.5914 3.71521 7.57314 4.14813C7.55499 4.58089 7.88422 4.94654 8.30933 4.96514L22.1889 5.57438L19.4599 14.2445H7.31544L5.12138 2.07989C5.07315 1.81328 4.89338 1.59085 4.64546 1.49181L1.05195 0.0543012C0.655904 -0.103587 0.208991 0.0944979 0.0534498 0.497285C-0.101823 0.900291 0.0926574 1.35564 0.488493 1.51402L3.6837 2.79216L5.91649 15.1703C5.98378 15.5424 6.30228 15.8127 6.674 15.8127H7.04437L6.19862 18.2048C6.12783 18.4052 6.15699 18.6277 6.27746 18.8018C6.39777 18.9759 6.59343 19.0795 6.80231 19.0795H7.39552C7.02794 19.4961 6.80231 20.0445 6.80231 20.6477C6.80231 21.9448 7.83884 23 9.11244 23C10.386 23 11.4226 21.9448 11.4226 20.6477C11.4226 20.0446 11.1969 19.4961 10.8294 19.0795H15.8661C15.4983 19.4961 15.2728 20.0445 15.2728 20.6477C15.2728 21.9448 16.309 23 17.5829 23C18.8568 23 19.893 21.9448 19.893 20.6477C19.893 20.0446 19.6674 19.4961 19.3 19.0795H20.0214C20.3759 19.0795 20.6631 18.7869 20.6631 18.4261C20.6631 18.0652 20.3758 17.7727 20.0214 17.7727H7.71536L8.40831 15.8124H20.0213C20.3562 15.8124 20.6525 15.5922 20.7545 15.2677L23.963 5.07435C24.0367 4.8417 23.9989 4.58734 23.8615 4.38674ZM9.11249 21.6934C8.54624 21.6934 8.08574 21.2246 8.08574 20.648C8.08574 20.0714 8.54624 19.6025 9.11249 19.6025C9.67875 19.6025 10.1392 20.0714 10.1392 20.648C10.1392 21.2246 9.67875 21.6934 9.11249 21.6934ZM17.5829 21.6934C17.0166 21.6934 16.5562 21.2246 16.5562 20.648C16.5562 20.0714 17.0166 19.6025 17.5829 19.6025C18.1491 19.6025 18.6096 20.0714 18.6096 20.648C18.6096 21.2246 18.1491 21.6934 17.5829 21.6934Z" fill="white"/>
</symbol><symbol id="icon-fav-2" viewBox="0 0 25 22">
<path d="M18.3594 0C17.0028 0 15.759 0.428513 14.6627 1.27366C13.6117 2.08392 12.912 3.11592 12.5 3.86635C12.088 3.11587 11.3883 2.08392 10.3373 1.27366C9.24097 0.428513 7.99722 0 6.64062 0C2.85488 0 0 3.08667 0 7.17989C0 11.602 3.56167 14.6275 8.95356 19.2078C9.86919 19.9856 10.907 20.8672 11.9857 21.8075C12.1279 21.9317 12.3105 22 12.5 22C12.6895 22 12.8721 21.9317 13.0143 21.8076C14.0931 20.8671 15.1309 19.9855 16.047 19.2073C21.4383 14.6275 25 11.602 25 7.17989C25 3.08667 22.1451 0 18.3594 0Z" fill="#3E7AEA"/>
</symbol><symbol id="icon-fav" viewBox="0 0 25 22">
<path d="M11.8864 4.20319C12.0093 4.42716 12.2445 4.56635 12.5 4.56635C12.7555 4.56636 12.9907 4.42717 13.1136 4.20321C13.499 3.50111 14.1426 2.55853 15.0901 1.82805C16.0666 1.07524 17.1608 0.7 18.3594 0.7C21.7081 0.7 24.3 3.4208 24.3 7.17989C24.3 9.17489 23.5062 10.8836 22.007 12.6869C20.49 14.5116 18.3057 16.3701 15.5938 18.6738L16.047 19.2073L15.5938 18.6738L15.5936 18.674C14.6778 19.4519 13.6369 20.3362 12.5543 21.2799L12.554 21.2802C12.5399 21.2925 12.5209 21.3 12.5 21.3C12.4791 21.3 12.4602 21.2925 12.4461 21.2802L12.4457 21.2799C11.364 20.337 10.3237 19.4533 9.409 18.6762L9.40677 18.6743L9.40675 18.6743C6.69462 16.3704 4.51014 14.5117 2.99309 12.687C1.49377 10.8836 0.7 9.17489 0.7 7.17989C0.7 3.4208 3.29194 0.7 6.64062 0.7C7.83922 0.7 8.93336 1.07524 9.90987 1.82805C10.8574 2.55854 11.501 3.50108 11.8864 4.20319Z" stroke="#CCCCCC" stroke-width="1.4" stroke-linejoin="round"/>
</symbol><symbol id="icon-minus" viewBox="0 0 16 2">
<path d="M1 1H15" stroke="white" stroke-width="2" stroke-linecap="round"/>
</symbol><symbol id="icon-plus" viewBox="0 0 16 16">
<path d="M8 15L8 1" stroke="white" stroke-width="2" stroke-linecap="round"/>
<path d="M1 8H15" stroke="white" stroke-width="2" stroke-linecap="round"/>
</symbol></svg>