<svg xmlns="http://www.w3.org/2000/svg" xmlns:xlink="http://www.w3.org/1999/xlink"><symbol id="icon-arrow" viewBox="0 0 22 38">
<path d="M21.5358 17.9572L2.69448 0.429717C2.07716 -0.144214 1.07772 -0.14325 0.461437 0.432686C-0.154367 1.00855 -0.152776 1.9414 0.464619 2.51578L18.1845 19.0001L0.463976 35.4843C-0.153339 36.0587 -0.15493 36.991 0.460793 37.5669C0.769729 37.8556 1.17446 38 1.57919 38C1.98288 38 2.38601 37.8566 2.69439 37.5699L21.5358 20.0428C21.8332 19.7669 22 19.3914 22 19.0001C22 18.6088 21.8327 18.2337 21.5358 17.9572Z" fill="currentColor"/>
</symbol><symbol id="icon-basket-2" viewBox="0 0 25 25">
<path d="M24.8557 5.2232C24.7126 5.0181 24.4823 4.89132 24.2322 4.88063L8.72447 4.21218C8.27952 4.19271 7.9077 4.53623 7.88868 4.9791C7.86977 5.42181 8.21272 5.79587 8.65554 5.81489L23.1134 6.43814L20.2707 15.3076H7.62024L5.33476 2.8633C5.28452 2.59056 5.09727 2.36303 4.83902 2.26171L1.09578 0.791145C0.683232 0.629627 0.217699 0.832266 0.0556768 1.24431C-0.106065 1.65659 0.096518 2.1224 0.508846 2.28442L3.83718 3.59195L6.163 16.2547C6.2331 16.6353 6.56486 16.9118 6.95207 16.9118H7.33788L6.45689 19.3589C6.38315 19.5639 6.41353 19.7916 6.53902 19.9697C6.66434 20.1478 6.86815 20.2538 7.08573 20.2538H7.70366C7.32076 20.6799 7.08573 21.241 7.08573 21.858C7.08573 23.185 8.16545 24.2644 9.49211 24.2644C10.8188 24.2644 11.8985 23.185 11.8985 21.858C11.8985 21.241 11.6635 20.6799 11.2806 20.2538H16.5271C16.1441 20.6799 15.9091 21.241 15.9091 21.858C15.9091 23.185 16.9885 24.2644 18.3155 24.2644C19.6425 24.2644 20.7219 23.185 20.7219 21.858C20.7219 21.241 20.4869 20.6799 20.1041 20.2538H20.8556C21.2248 20.2538 21.524 19.9545 21.524 19.5854C21.524 19.2161 21.2248 18.9169 20.8556 18.9169H8.03683L8.75865 16.9116H20.8555C21.2044 16.9116 21.513 16.6863 21.6193 16.3544L24.9615 5.92662C25.0382 5.68862 24.9988 5.42841 24.8557 5.2232ZM9.49217 22.9278C8.90232 22.9278 8.42263 22.4482 8.42263 21.8583C8.42263 21.2685 8.90232 20.7888 9.49217 20.7888C10.082 20.7888 10.5616 21.2685 10.5616 21.8583C10.5616 22.4482 10.082 22.9278 9.49217 22.9278ZM18.3155 22.9278C17.7256 22.9278 17.246 22.4482 17.246 21.8583C17.246 21.2685 17.7256 20.7888 18.3155 20.7888C18.9053 20.7888 19.385 21.2685 19.385 21.8583C19.385 22.4482 18.9053 22.9278 18.3155 22.9278Z" fill="currentColor"/>
</symbol><symbol id="icon-basket" viewBox="0 0 24 23">
<path d="M23.8615 4.38674C23.7241 4.18625 23.5031 4.06232 23.2629 4.05188L8.3755 3.39845C7.94835 3.37942 7.5914 3.71521 7.57314 4.14813C7.55499 4.58089 7.88422 4.94654 8.30933 4.96514L22.1889 5.57438L19.4599 14.2445H7.31544L5.12138 2.07989C5.07315 1.81328 4.89338 1.59085 4.64546 1.49181L1.05195 0.0543012C0.655904 -0.103587 0.208991 0.0944979 0.0534498 0.497285C-0.101823 0.900291 0.0926574 1.35564 0.488493 1.51402L3.6837 2.79216L5.91649 15.1703C5.98378 15.5424 6.30228 15.8127 6.674 15.8127H7.04437L6.19862 18.2048C6.12783 18.4052 6.15699 18.6277 6.27746 18.8018C6.39777 18.9759 6.59343 19.0795 6.80231 19.0795H7.39552C7.02794 19.4961 6.80231 20.0445 6.80231 20.6477C6.80231 21.9448 7.83884 23 9.11244 23C10.386 23 11.4226 21.9448 11.4226 20.6477C11.4226 20.0446 11.1969 19.4961 10.8294 19.0795H15.8661C15.4983 19.4961 15.2728 20.0445 15.2728 20.6477C15.2728 21.9448 16.309 23 17.5829 23C18.8568 23 19.893 21.9448 19.893 20.6477C19.893 20.0446 19.6674 19.4961 19.3 19.0795H20.0214C20.3759 19.0795 20.6631 18.7869 20.6631 18.4261C20.6631 18.0652 20.3758 17.7727 20.0214 17.7727H7.71536L8.40831 15.8124H20.0213C20.3562 15.8124 20.6525 15.5922 20.7545 15.2677L23.963 5.07435C24.0367 4.8417 23.9989 4.58734 23.8615 4.38674ZM9.11249 21.6934C8.54624 21.6934 8.08574 21.2246 8.08574 20.648C8.08574 20.0714 8.54624 19.6025 9.11249 19.6025C9.67875 19.6025 10.1392 20.0714 10.1392 20.648C10.1392 21.2246 9.67875 21.6934 9.11249 21.6934ZM17.5829 21.6934C17.0166 21.6934 16.5562 21.2246 16.5562 20.648C16.5562 20.0714 17.0166 19.6025 17.5829 19.6025C18.1491 19.6025 18.6096 20.0714 18.6096 20.648C18.6096 21.2246 18.1491 21.6934 17.5829 21.6934Z" fill="white"/>
</symbol><symbol id="icon-fav-2" viewBox="0 0 25 22">
<path d="M18.3594 0C17.0028 0 15.759 0.428513 14.6627 1.27366C13.6117 2.08392 12.912 3.11592 12.5 3.86635C12.088 3.11587 11.3883 2.08392 10.3373 1.27366C9.24097 0.428513 7.99722 0 6.64062 0C2.85488 0 0 3.08667 0 7.17989C0 11.602 3.56167 14.6275 8.95356 19.2078C9.86919 19.9856 10.907 20.8672 11.9857 21.8075C12.1279 21.9317 12.3105 22 12.5 22C12.6895 22 12.8721 21.9317 13.0143 21.8076C14.0931 20.8671 15.1309 19.9855 16.047 19.2073C21.4383 14.6275 25 11.602 25 7.17989C25 3.08667 22.1451 0 18.3594 0Z" fill="#3E7AEA"/>
</symbol><symbol id="icon-fav" viewBox="0 0 25 22">
<path d="M11.8864 4.20319C12.0093 4.42716 12.2445 4.56635 12.5 4.56635C12.7555 4.56636 12.9907 4.42717 13.1136 4.20321C13.499 3.50111 14.1426 2.55853 15.0901 1.82805C16.0666 1.07524 17.1608 0.7 18.3594 0.7C21.7081 0.7 24.3 3.4208 24.3 7.17989C24.3 9.17489 23.5062 10.8836 22.007 12.6869C20.49 14.5116 18.3057 16.3701 15.5938 18.6738L16.047 19.2073L15.5938 18.6738L15.5936 18.674C14.6778 19.4519 13.6369 20.3362 12.5543 21.2799L12.554 21.2802C12.5399 21.2925 12.5209 21.3 12.5 21.3C12.4791 21.3 12.4602 21.2925 12.4461 21.2802L12.4457 21.2799C11.364 20.337 10.3237 19.4533 9.409 18.6762L9.40677 18.6743L9.40675 18.6743C6.69462 16.3704 4.51014 14.5117 2.99309 12.687C1.49377 10.8836 0.7 9.17489 0.7 7.17989C0.7 3.4208 3.29194 0.7 6.64062 0.7C7.83922 0.7 8.93336 1.07524 9.90987 1.82805C10.8574 2.55854 11.501 3.50108 11.8864 4.20319Z" stroke="#CCCCCC" stroke-width="1.4" stroke-linejoin="round"/>
</symbol><symbol id="icon-heart" viewBox="0 0 25 25">
<path d="M12.5 23.6092C12.1441 23.6092 11.8009 23.4802 11.5335 23.246C10.5236 22.3629 9.54989 21.533 8.69082 20.801L8.68643 20.7972C6.16778 18.6508 3.99284 16.7973 2.47955 14.9714C0.787924 12.9301 0 10.9947 0 8.88042C0 6.82621 0.704383 4.93107 1.98326 3.54385C3.27739 2.14024 5.05313 1.36719 6.98394 1.36719C8.42703 1.36719 9.74863 1.82343 10.9119 2.72312C11.499 3.17726 12.0312 3.73306 12.5 4.38137C12.969 3.73306 13.501 3.17726 14.0882 2.72312C15.2515 1.82343 16.5731 1.36719 18.0162 1.36719C19.9468 1.36719 21.7228 2.14024 23.0169 3.54385C24.2958 4.93107 25 6.82621 25 8.88042C25 10.9947 24.2122 12.9301 22.5206 14.9712C21.0073 16.7973 18.8326 18.6506 16.3143 20.7968C15.4537 21.53 14.4785 22.3612 13.4662 23.2464C13.199 23.4802 12.8557 23.6092 12.5 23.6092ZM6.98394 2.83165C5.46702 2.83165 4.07352 3.43704 3.05976 4.53644C2.03094 5.65243 1.46427 7.19509 1.46427 8.88042C1.46427 10.6586 2.12516 12.249 3.60698 14.0369C5.03921 15.7652 7.16952 17.5806 9.6361 19.6827L9.64068 19.6865C10.503 20.4214 11.4805 21.2545 12.4979 22.1441C13.5214 21.2528 14.5004 20.4184 15.3644 19.6823C17.8308 17.5802 19.9609 15.7652 21.3932 14.0369C22.8748 12.249 23.5357 10.6586 23.5357 8.88042C23.5357 7.19509 22.969 5.65243 21.9402 4.53644C20.9266 3.43704 19.5329 2.83165 18.0162 2.83165C16.905 2.83165 15.8848 3.18489 14.9839 3.88145C14.1811 4.50249 13.6219 5.28755 13.294 5.83687C13.1254 6.11935 12.8286 6.28796 12.5 6.28796C12.1713 6.28796 11.8746 6.11935 11.7059 5.83687C11.3783 5.28755 10.819 4.50249 10.016 3.88145C9.1152 3.18489 8.09496 2.83165 6.98394 2.83165Z" fill="currentColor"/>
</symbol><symbol id="icon-minus" viewBox="0 0 16 2">
<path d="M1 1H15" stroke="white" stroke-width="2" stroke-linecap="round"/>
</symbol><symbol id="icon-plus" viewBox="0 0 16 16">
<path d="M8 15L8 1" stroke="white" stroke-width="2" stroke-linecap="round"/>
<path d="M1 8H15" stroke="white" stroke-width="2" stroke-linecap="round"/>
</symbol><symbol id="icon-tel" viewBox="0 0 25 25">
<path d="M23.8253 18.8677L23.8253 18.8677C24.3896 19.4308 24.4396 20.4714 23.8066 21.2101L21.4529 23.5588L21.972 24.0791L21.4529 23.5588C21.0039 24.0068 20.3314 24.2633 19.4012 24.265C18.465 24.2667 17.3185 24.0074 16.023 23.4768C13.4348 22.4168 10.3921 20.3317 7.50765 17.4534C4.62559 14.5774 2.56727 11.5424 1.5201 8.95984C0.996026 7.66735 0.738484 6.52085 0.735035 5.58291C0.731614 4.65261 0.975784 3.98053 1.39655 3.53466L3.76175 1.17442C4.32694 0.610421 5.37225 0.560586 6.11338 1.19307L9.59087 4.66324C10.4707 5.54126 10.0819 6.97701 9.02026 7.30297L9.01212 7.30547L9.00404 7.30816C8.09842 7.60936 7.69822 8.37353 7.58045 9.10568C7.46756 9.80745 7.58689 10.573 7.79259 11.2018C8.49507 14.0858 11.0827 16.5297 13.8221 17.2131L13.8314 17.2155L13.8408 17.2176C14.4297 17.3482 15.1863 17.4598 15.8783 17.3564C16.5935 17.2495 17.3681 16.8816 17.6747 15.9637L17.6774 15.9556L17.6799 15.9474C18.0058 14.8904 19.4467 14.4984 20.3291 15.3789L23.8253 18.8677Z" stroke="currentColor" fill="none" stroke-width="1.47"/>
</symbol><symbol id="icon-user" viewBox="0 0 25 25">
<path d="M12.5 14.0814C4.98843 14.0814 0.851562 17.6349 0.851562 24.0876C0.851562 24.5915 1.26001 25 1.76396 25H23.236C23.7399 25 24.1484 24.5915 24.1484 24.0876C24.1484 17.6353 20.0116 14.0814 12.5 14.0814ZM2.70957 23.1751C3.06846 18.3506 6.35767 15.9063 12.5 15.9063C18.6423 15.9063 21.9316 18.3506 22.2908 23.1751H2.70957Z" fill="currentColor"/>
<path d="M12.5001 0C9.04961 0 6.44775 2.6542 6.44775 6.17368C6.44775 9.79624 9.1628 12.743 12.5001 12.743C15.8373 12.743 18.5524 9.79624 18.5524 6.17397C18.5524 2.6542 15.9505 0 12.5001 0ZM12.5001 10.9185C10.1689 10.9185 8.27256 8.79014 8.27256 6.17397C8.27256 3.65391 10.0505 1.8248 12.5001 1.8248C14.9104 1.8248 16.7276 3.69434 16.7276 6.17397C16.7276 8.79014 14.8313 10.9185 12.5001 10.9185Z" fill="currentColor"/>
</symbol></svg>