<svg width="25" height="22" viewBox="0 0 25 22" fill="none" xmlns="http://www.w3.org/2000/svg">
<path d="M18.3594 0C17.0028 0 15.759 0.428513 14.6627 1.27366C13.6117 2.08392 12.912 3.11592 12.5 3.86635C12.088 3.11587 11.3883 2.08392 10.3373 1.27366C9.24097 0.428513 7.99722 0 6.64062 0C2.85488 0 0 3.08667 0 7.17989C0 11.602 3.56167 14.6275 8.95356 19.2078C9.86919 19.9856 10.907 20.8672 11.9857 21.8075C12.1279 21.9317 12.3105 22 12.5 22C12.6895 22 12.8721 21.9317 13.0143 21.8076C14.0931 20.8671 15.1309 19.9855 16.047 19.2073C21.4383 14.6275 25 11.602 25 7.17989C25 3.08667 22.1451 0 18.3594 0Z" fill="#3E7AEA"/>
</svg>
