<svg width="25" height="25" viewBox="0 0 25 25" fill="none" xmlns="http://www.w3.org/2000/svg">
<path d="M23.8253 18.8677L23.8253 18.8677C24.3896 19.4308 24.4396 20.4714 23.8066 21.2101L21.4529 23.5588L21.972 24.0791L21.4529 23.5588C21.0039 24.0068 20.3314 24.2633 19.4012 24.265C18.465 24.2667 17.3185 24.0074 16.023 23.4768C13.4348 22.4168 10.3921 20.3317 7.50765 17.4534C4.62559 14.5774 2.56727 11.5424 1.5201 8.95984C0.996026 7.66735 0.738484 6.52085 0.735035 5.58291C0.731614 4.65261 0.975784 3.98053 1.39655 3.53466L3.76175 1.17442C4.32694 0.610421 5.37225 0.560586 6.11338 1.19307L9.59087 4.66324C10.4707 5.54126 10.0819 6.97701 9.02026 7.30297L9.01212 7.30547L9.00404 7.30816C8.09842 7.60936 7.69822 8.37353 7.58045 9.10568C7.46756 9.80745 7.58689 10.573 7.79259 11.2018C8.49507 14.0858 11.0827 16.5297 13.8221 17.2131L13.8314 17.2155L13.8408 17.2176C14.4297 17.3482 15.1863 17.4598 15.8783 17.3564C16.5935 17.2495 17.3681 16.8816 17.6747 15.9637L17.6774 15.9556L17.6799 15.9474C18.0058 14.8904 19.4467 14.4984 20.3291 15.3789L23.8253 18.8677Z" stroke="currentColor" fill="none" stroke-width="1.47"/>
</svg>
