<svg width="24" height="23" viewBox="0 0 24 23" fill="none" xmlns="http://www.w3.org/2000/svg">
<path d="M23.8615 4.38674C23.7241 4.18625 23.5031 4.06232 23.2629 4.05188L8.3755 3.39845C7.94835 3.37942 7.5914 3.71521 7.57314 4.14813C7.55499 4.58089 7.88422 4.94654 8.30933 4.96514L22.1889 5.57438L19.4599 14.2445H7.31544L5.12138 2.07989C5.07315 1.81328 4.89338 1.59085 4.64546 1.49181L1.05195 0.0543012C0.655904 -0.103587 0.208991 0.0944979 0.0534498 0.497285C-0.101823 0.900291 0.0926574 1.35564 0.488493 1.51402L3.6837 2.79216L5.91649 15.1703C5.98378 15.5424 6.30228 15.8127 6.674 15.8127H7.04437L6.19862 18.2048C6.12783 18.4052 6.15699 18.6277 6.27746 18.8018C6.39777 18.9759 6.59343 19.0795 6.80231 19.0795H7.39552C7.02794 19.4961 6.80231 20.0445 6.80231 20.6477C6.80231 21.9448 7.83884 23 9.11244 23C10.386 23 11.4226 21.9448 11.4226 20.6477C11.4226 20.0446 11.1969 19.4961 10.8294 19.0795H15.8661C15.4983 19.4961 15.2728 20.0445 15.2728 20.6477C15.2728 21.9448 16.309 23 17.5829 23C18.8568 23 19.893 21.9448 19.893 20.6477C19.893 20.0446 19.6674 19.4961 19.3 19.0795H20.0214C20.3759 19.0795 20.6631 18.7869 20.6631 18.4261C20.6631 18.0652 20.3758 17.7727 20.0214 17.7727H7.71536L8.40831 15.8124H20.0213C20.3562 15.8124 20.6525 15.5922 20.7545 15.2677L23.963 5.07435C24.0367 4.8417 23.9989 4.58734 23.8615 4.38674ZM9.11249 21.6934C8.54624 21.6934 8.08574 21.2246 8.08574 20.648C8.08574 20.0714 8.54624 19.6025 9.11249 19.6025C9.67875 19.6025 10.1392 20.0714 10.1392 20.648C10.1392 21.2246 9.67875 21.6934 9.11249 21.6934ZM17.5829 21.6934C17.0166 21.6934 16.5562 21.2246 16.5562 20.648C16.5562 20.0714 17.0166 19.6025 17.5829 19.6025C18.1491 19.6025 18.6096 20.0714 18.6096 20.648C18.6096 21.2246 18.1491 21.6934 17.5829 21.6934Z" fill="white"/>
</svg>
