<svg width="21" height="21" viewBox="0 0 21 21" fill="none" xmlns="http://www.w3.org/2000/svg">
<path d="M0 9.2269V14.6617C0 16.2268 1.2687 17.4955 2.83376 17.4955H18.1662C19.7313 17.4955 21 16.2268 21 14.6617V9.2269C21 8.95473 20.7793 8.73407 20.5072 8.73407H0.492829C0.220664 8.73407 0 8.95473 0 9.2269ZM5.24316 12.6767H3.92895C3.45263 12.6767 3.0665 12.2906 3.0665 11.8143C3.0665 11.3379 3.45263 10.9518 3.92895 10.9518H5.24316C5.71948 10.9518 6.10561 11.3379 6.10561 11.8143C6.10561 12.2906 5.71948 12.6767 5.24316 12.6767Z" fill="currentColor"/>
<path d="M21 6.51629V6.33834C21 4.77328 19.7313 3.50458 18.1662 3.50458H2.83376C1.2687 3.50458 0 4.77328 0 6.33834V6.51629C0 6.78846 0.220664 7.00912 0.492829 7.00912H20.5072C20.7793 7.00912 21 6.78846 21 6.51629Z" fill="currentColor"/>
</svg>
