<svg width="25" height="22" viewBox="0 0 25 22" fill="none" xmlns="http://www.w3.org/2000/svg">
<path d="M11.8864 4.20319C12.0093 4.42716 12.2445 4.56635 12.5 4.56635C12.7555 4.56636 12.9907 4.42717 13.1136 4.20321C13.499 3.50111 14.1426 2.55853 15.0901 1.82805C16.0666 1.07524 17.1608 0.7 18.3594 0.7C21.7081 0.7 24.3 3.4208 24.3 7.17989C24.3 9.17489 23.5062 10.8836 22.007 12.6869C20.49 14.5116 18.3057 16.3701 15.5938 18.6738L16.047 19.2073L15.5938 18.6738L15.5936 18.674C14.6778 19.4519 13.6369 20.3362 12.5543 21.2799L12.554 21.2802C12.5399 21.2925 12.5209 21.3 12.5 21.3C12.4791 21.3 12.4602 21.2925 12.4461 21.2802L12.4457 21.2799C11.364 20.337 10.3237 19.4533 9.409 18.6762L9.40677 18.6743L9.40675 18.6743C6.69462 16.3704 4.51014 14.5117 2.99309 12.687C1.49377 10.8836 0.7 9.17489 0.7 7.17989C0.7 3.4208 3.29194 0.7 6.64062 0.7C7.83922 0.7 8.93336 1.07524 9.90987 1.82805C10.8574 2.55854 11.501 3.50108 11.8864 4.20319Z" stroke="#CCCCCC" stroke-width="1.4" stroke-linejoin="round"/>
</svg>
