<svg width="20" height="20" viewBox="0 0 20 20" fill="none" xmlns="http://www.w3.org/2000/svg">
<path d="M20 13.7632C20 13.9682 19.8563 14.1292 19.6513 14.1292H19.0945C18.7204 13.3039 17.8686 12.6795 16.8796 12.6795C15.8905 12.6795 15.0389 13.3039 14.6646 14.1292H7.42734V11.168H20V13.7632Z" fill="currentColor"/>
<path d="M16.8793 13.462C17.7857 13.462 18.5205 14.1968 18.5205 15.1032C18.5205 16.0097 17.7857 16.7445 16.8793 16.7445C15.9733 16.7434 15.239 16.0092 15.238 15.1032C15.238 14.1968 15.9728 13.462 16.8793 13.462Z" fill="currentColor"/>
<path d="M0.213573 9.96187L1.77666 9.27484H6.65039V14.1292H5.70438C5.33002 13.3039 4.47847 12.6795 3.48946 12.6795C2.50044 12.6795 1.64865 13.3039 1.27453 14.1292H0.348717C0.143671 14.1292 -1.62125e-05 13.9682 -1.62125e-05 13.7632V10.315C-0.00516176 10.1653 0.0786233 10.0268 0.213573 9.96187Z" fill="currentColor"/>
<path d="M3.38368 6.47607C3.57873 6.10204 3.96819 5.87015 4.38998 5.87685H6.65039V8.49818H2.33418L3.38368 6.47607Z" fill="currentColor"/>
<path d="M8.54208 3.25549H18.8911C19.5153 3.25549 20 3.76937 20 4.39359V10.3913H7.42734V4.39359C7.42734 4.39184 7.42729 4.39009 7.42729 4.38834C7.42229 3.76772 7.92141 3.26049 8.54208 3.25549Z" fill="currentColor"/>
<path d="M3.48966 13.462C4.39611 13.462 5.13091 14.1968 5.13086 15.1033C5.13081 16.0097 4.39601 16.7445 3.48957 16.7445C2.58356 16.7434 1.84939 16.0092 1.84838 15.1032V15.1032C1.84842 14.1968 2.58322 13.462 3.48966 13.462Z" fill="currentColor"/>
</svg>
